<?xml version="1.0" encoding="utf-8"?>
<!-- Generator: Adobe Illustrator 20.1.0, SVG Export Plug-In . SVG Version: 6.00 Build 0)  -->
<svg version="1.1" xmlns="http://www.w3.org/2000/svg" xmlns:xlink="http://www.w3.org/1999/xlink" x="0px" y="0px"
	 viewBox="0 0 1000 1000" style="enable-background:new 0 0 1000 1000;" xml:space="preserve">
<g id="Layer_2">
	<g id="Layer_2_1_">
		<rect x="-28.1" y="-29.9" style="fill:#3F4F66;" width="1056.2" height="1059.8"/>
	</g>
</g>
<g id="Layer_3">
	<g>
		<path style="fill:#76ADDE;" d="M209.5,3.6c-0.2-3.5-1.3-6.8-1.4-10.3c-0.1-3.9,0.1-7.7,0.1-11.6c0-4.2-0.7-8.4-0.8-12.6
			c-0.2-4,0.2-8.1,0.2-12.1c0-4,0-8-0.1-12.1c-0.1-4,0.8-7.8,0.9-11.8c0.1-4.4-0.2-8.7-0.1-13.1c0.1-3.9-0.6-7-1.3-10.8
			c-0.5-3-0.8-5.2-3.5-7.2c-2.1-1.6-4.4-1.2-6.7-1.1c-0.2-2.2,0.2-4.4,0.2-6.5c0-2.8-0.4-5.7-1.6-8.3c-0.8-1.8-2.3-3.4-3.6-4.9
			c-1.5-1.8-3.4-2.6-5.7-3.1c-5.3-1-11.2-0.6-16.6-0.4c-2.7,0.1-5.4,0.6-8,0.9c-2.6,0.3-5.2,0.6-7.6,1.4c-4.4,1.3-9.3,1.1-12.4,5.1
			c-1.3,1.7-2,3.8-2.3,5.9c-0.5,2.7-1,5.5-1.2,8.3c-0.1,1.2,0.1,1.5-0.9,1.8c-0.6,0.2-2.1,0.1-2.8,0c-1.2-0.3-1.2-0.9-1.9-1.9
			c-0.8-1.3-1.9-2.4-2.9-3.5c-3.6-3.7-5.4-7.1-11-7.7c-6.2-0.7-12.6-3.1-18.9-2.3c-2.7,0.3-5.6,1.2-8.1,2.5c-0.9,0.5-2,0.9-2.8,1.5
			c-1,0.7-1.6,1.8-2.5,2.7c-0.1,0.1-0.1,0.1-0.2,0.2c-0.3,0.1-0.5,0.2-0.8,0.4c-2.3,2-4.6,3.7-6.5,6.1c-2,2.4-2.6,4.7-2.8,7.8
			c-0.7,7.7-1.5,15.4-2,23.1c-0.5,7.7-0.4,15.4-0.5,23.1c0,7.7,0.7,15.1,1.3,22.8c0.3,3.9,0.4,7.8,0.7,11.6c0.3,3.7,1,7.3,1.3,11
			c0.5,7,0.7,14.2,1.6,21.2c0.9,6.5,0,13.4,2.1,19.6c0.7,2.2,1.5,4.1,3.3,5.6c2.4,2,5.8,2.4,8.7,3.1c7,1.6,14.1,1.4,21.3,1.3
			C121,49,128,49.2,135,47.7c7.8-1.6,15.4-2.5,23.3-2.6c3.8-0.1,7.6,0.1,11.4-0.1c3.7-0.2,7.2-1,10.8-1.6c3.3-0.5,6.7-0.3,10-0.8
			c3.4-0.5,6.7-1.7,9.9-3c6-2.6,7.2-8.1,7.9-14c0.4-3.4,0.4-6.7,0.5-10.1C209.1,11.5,209.8,7.5,209.5,3.6z M151-111.1
			c3.7-2.4,7.6-2.5,11.7-2.5c4.6,0,9-1.4,13.7-1.2c1.3,0.1,2.2,0,3.4-0.4c0.5-0.2,1-0.4,1.5-0.5c1.6,0,2.8,1.4,3.7,2.7
			c1.4,2.1,2.7,5.8,2.5,8.8c-0.3,0.1-0.5,0.1-0.8,0.2c-2.3,0.4-4.7,0.6-7,0.9c-3.8,0.5-7.7,0.7-11.5,1.3c-4.5,0.7-9,0.4-13.5,0.7
			c-2.6,0.2-5.6,0.2-8,1.5c-0.1-0.2-0.1-0.4-0.1-0.6C146.7-104.7,147.3-108.6,151-111.1z"/>
		<path style="fill:#8FD2E7;" d="M195.4-1.4c0.1-3.4,0.4-6.7,0.4-10.1c-0.2-13-1.5-26-2.6-39c-0.5-6.3-0.2-12.8-1.3-19
			c-0.3-1.9-0.4-4.7-1.9-6.2c-0.1-0.2-0.3-0.3-0.5-0.4c-1.9-2.6-6.6-2.6-9.5-2.7c-5.6-0.3-11.3,0-16.9,0c-2.8,0-5.6-0.3-8.5-0.4
			c-2.6-0.1-5.1,0.3-7.7,0.4c-5.5,0.2-10.9,0.4-16.4,0.1c-5.8-0.3-11.7,0.3-17.6-0.4c-4.9-0.6-10.1,0.6-15.1,0.7
			c-2.7,0-7.3-0.4-6.8,3.6c0,0.1,0,0.2,0,0.3c-0.1,0.2-0.1,0.4-0.1,0.6c0,6.8,0.3,13.7,0.1,20.5c-0.2,6.8-0.4,13.5,0.3,20.3
			c0.3,3.1,0.7,6.1,1,9.2c0.3,3.5,0,7,0.3,10.5C93.4-7,93.3-0.6,93.8,5.7c0.4,4.9,1.5,10.9,4.9,14.7c1.3,1.5,3.1,2,5,2.2
			c3.1,0.4,6.2,0.6,9.3,1.4c6.3,1.6,12.3,3.7,18.9,4.1c6.4,0.5,13.2,0.5,19.5-0.3c12.6-1.7,25-4,36.9-8.7c2.2-0.9,4.5-1.6,5.7-3.8
			c1.3-2.1,1.3-4.7,1.4-7.1C195.5,5.1,195.3,1.8,195.4-1.4z"/>
	</g>
	<g>
		<path style="fill:#9CC542;" d="M164.8,190.5c-0.6-4.9-0.9-9.8-1.5-14.7c-0.7-5.5-0.6-11-1.2-16.5c-0.7-5.8-0.1-11.5-1-17.3
			c-0.3-1.8-0.9-3.6-1-5.5c-0.1-1.4,0.1-2.7,0-4.1c-0.1-1.6-0.6-3.1-0.8-4.7c-0.1-1.5-0.1-3-0.3-4.5c-0.1-0.5-0.1-1-0.2-1.4
			c0-0.6,0-1.1,0-1.7c0-7.5,1.3-15.7-3.1-22.2c-3.2-4.6-9-5.9-14.3-6.2c-3-0.2-6.2-0.4-9.2,0.1c-0.7,0.1-1.4,0.3-2.1,0.4
			c-0.2,0-0.4,0-0.5,0c-6.4,0-13-0.2-19.3,1.3c-4.9,1.2-10,4.1-12.4,8.7c-2.6,5.1-2.9,11.1-2.8,16.7c0,0.2,0,0.3,0.1,0.5
			c-0.2,5.2-0.1,10.4-0.1,15.6c0,6.5,0.2,12.9,0.1,19.4c-0.1,5.7-1.2,11.2-1.3,16.9c-0.1,5.4-1.6,10.9-0.9,16.3
			c0.5,3.9,0.6,8.3,2.9,11.6c2.7,3.9,8.6,4.6,12.9,5.3c5.9,1,11.8,1.5,17.8,1.4c6.1-0.1,12.3-0.1,18.4-0.8c2.9-0.3,5.7-0.8,8.6-1.2
			c2.4-0.4,4.9-0.4,6.9-2C164.2,199.4,165.4,194.9,164.8,190.5z"/>
		<path style="fill:#76ADDE;" d="M138.8,76.2c0.1-3.2-0.9-6-2.2-8.8c-1-2.2-2.8-2.9-4.9-3.3c-2.3-1.6-5.4-1.2-8.2-1.2
			c-0.6,0-1.2-0.1-1.8-0.1c-1.3,0-2.7,0-3.9,0.4c-1.4,0.3-2.7,0.9-3.7,2.1c-2.4,2.9-1.3,8.3-1.2,11.9c0.1,2.3,0.3,4.8,0.6,7.1
			c0,0.3,0.3,1.3,0.6,2.3c0.2,1.4,0.3,2.8,0.5,4.2c-0.6,1-0.3,2.1,0.3,2.8c0.2,1,1,1.6,2.1,1.7c1.8,0.2,3.6-0.7,5.4-1
			c1.3-0.2,2.5,0,3.9,0c1.4,0,2.5-0.5,3.9-0.6c2.8-0.4,6.5,0.1,8.1-3c0.5-0.9,0.5-1.9,0.4-2.8C138.6,83.9,138.7,80.1,138.8,76.2z"/>
		<path style="fill:#4CB79C;" d="M146.6,170.8c0-2.3-0.2-4.5-0.3-6.8c0-1.9,0.4-3.7,0.3-5.6c-0.1-2.2-0.8-4.3-0.8-6.5
			c0-2.2,0.1-4.4,0.1-6.7c0-2.3-0.6-4.4-0.6-6.6c0-1.9,0.6-3.9,0.7-5.7c0.2-2,0.6-4,0.5-6c0-1.5-0.5-2.9-0.6-4.4
			c-0.2-1.7,0.2-2.9-0.5-4.5c-0.3-0.6-1.2-1.1-1.9-1.1c-2,0.1-3.9,0.7-5.8,1c-2.6,0.5-4.4-0.6-6.8-0.9c-4.8-0.7-9.8-0.7-14.7-0.7
			c-1,0-1.7,0.6-2,1.4c-0.9,0.2-1.6,0.8-1.4,2c0.6,4.9,0.5,9.8,0.8,14.7c0.3,5.1,0.7,10.3,1,15.4c0.2,4.7-0.1,9.5-0.1,14.2
			c0,4.6,0.9,9.3,1.4,13.9c0.1,0.9,0.6,1.9,1.6,2.1c3.2,0.7,6.5-1,9.7-1.1c4.2-0.1,8.5,0.5,12.7,0.2c2.4-0.2,5.4-0.4,6.3-2.9
			C146.9,174.5,146.6,172.5,146.6,170.8z"/>
	</g>
	<g>
		<path style="fill:#E83B3F;" d="M83.8,342.6c4.9-6.8,7.4-15.3,8.5-23.5c1.2-8.7,3.1-17.4,1.8-26.1c-0.5-3.4-2.2-12-7.4-7.5
			c-2.5,2.1-4.1,7.3-4.9,10.4c-0.6,2.2-0.8,4.6-1.1,6.8c0,0.4-0.1,0.8-0.1,1.2c-1-1.8-2-3.7-3-5.5c-1.2-2.3-2.4-4.8-2.8-7.5
			c-0.4-2.6,0-5.2-0.1-7.8c-0.1-5.3,0.7-10.5,0.7-15.9c0-5.4,1.2-10.6,0.4-16.1c-0.4-2.8-1.6-6.9-5.1-7.1c-3.9-0.2-4.8,4-5.3,6.9
			c-0.1,0.4-1.2,20.1-1.2,20.4c-0.3-4-0.2-27.9-4.2-29.5c-0.9-0.4-2.5,0.2-2.9,1.2c-2.5,5.8-3.4,11.7-3.4,18c0,3.3,0.1,6.6-0.5,9.8
			c0,0.2-0.2,0.7-0.4,1.3c-0.1-0.6-0.1-1.2-0.2-1.8c-0.2-3.2-0.2-6.3-0.4-9.5c-0.2-3.1-0.4-6.3-1.4-9.2c-0.9-2.7-2.9-5.6-6.1-4.6
			c-3.6,1.1-4,5.5-4.2,8.6c-0.2,4-0.8,8-1.1,12c-0.1-1.1-0.2-2.1-0.4-3.2c-0.5-3.3-0.4-9.7-3.4-12.1c-1.1-0.9-2.5-1-3.6,0
			c-2.6,2.5-3.3,6.5-3.7,9.9c-0.5,5.3,0,10.9,0,16.3c0,10.2-1.4,20.4-2.2,30.6c-0.4,5.1-1.6,10.2-1.6,15.3c0,5.1-0.4,10.8,0.8,15.8
			c0.5,2.2,1.5,4.3,2.4,6.4c0.9,2.2,2.6,4.5,3.1,6.8c0.5,2-0.3,4.9-0.6,7c-0.4,2.7-0.3,5.4-0.9,8c-1.3,6-0.5,11.7-1,17.8
			c-0.3,3.5-0.5,7.1-1.1,10.6c-0.3,1.5-0.6,3-0.8,4.6c-0.1,0.5,0.1,2.2-0.2,2.6c-1.3,1.5-0.5,3.4,0.9,4.1c0.5,2,3.2,3.4,4.8,4.3
			c3.1,1.7,6.5,2.7,9.5,4.6c3.2,2,7,3.3,10.8,4c3.9,0.8,7.9-0.1,11.8-0.7c3.6-0.5,7.8-1.1,11.1-2.5c3.7-1.5,6.9-4,9.8-6.7
			c6-5.8,1.7-14.5,0.1-21.3c-1-4.6-1.5-9.3-2.3-13.9c-0.4-2-1-3.8-1.5-5.7c-0.7-2.2-0.8-4.5-1.3-6.8c-0.4-2-1.2-3.9-1.9-5.9
			c-0.5-1.4-1.6-3.5-1.7-5c-0.1-1.9,1.9-3.6,3-4.9C80.8,346.1,82.5,344.4,83.8,342.6z"/>
		<path style="fill:#E83B3F;" d="M130.1,347.9c1.1,1.4,3.1,3,3,4.9c-0.1,1.5-1.2,3.6-1.7,5c-0.7,2-1.5,3.8-1.9,5.9
			c-0.5,2.3-0.6,4.5-1.3,6.8c-0.6,1.9-1.2,3.7-1.5,5.7c-0.9,4.6-1.3,9.3-2.3,13.9c-1.5,6.8-5.8,15.4,0.1,21.3
			c2.8,2.8,6.1,5.2,9.8,6.7c3.4,1.4,7.5,1.9,11.1,2.5c3.8,0.6,7.9,1.4,11.8,0.7c3.7-0.7,7.5-2,10.8-4c3-1.9,6.4-2.9,9.5-4.6
			c1.6-0.9,4.4-2.3,4.8-4.3c1.3-0.7,2.2-2.6,0.9-4.1c-0.3-0.4-0.2-2.1-0.2-2.6c-0.2-1.5-0.5-3-0.8-4.6c-0.6-3.5-0.8-7.1-1.1-10.6
			c-0.5-6,0.3-11.8-1-17.8c-0.6-2.6-0.5-5.4-0.9-8c-0.3-2.1-1.1-5-0.6-7c0.5-2.3,2.2-4.6,3.1-6.8c0.9-2.1,1.8-4.2,2.4-6.4
			c1.2-5,0.8-10.7,0.8-15.8c0-5.1-1.2-10.2-1.6-15.3c-0.8-10.2-2.2-20.4-2.2-30.6c0-5.4,0.6-11,0-16.3c-0.4-3.4-1.1-7.4-3.7-9.9
			c-1.1-1-2.5-0.9-3.6,0c-3,2.4-2.9,8.7-3.4,12.1c-0.2,1.1-0.3,2.1-0.4,3.2c-0.3-4-0.9-8-1.1-12c-0.2-3.1-0.6-7.5-4.2-8.6
			c-3.3-1-5.2,1.9-6.1,4.6c-1,2.9-1.1,6.2-1.4,9.2c-0.2,3.2-0.2,6.3-0.4,9.5c0,0.6-0.1,1.2-0.2,1.8c-0.2-0.6-0.4-1.1-0.4-1.3
			c-0.6-3.2-0.5-6.5-0.5-9.8c0-6.3-0.8-12.2-3.4-18c-0.4-0.9-1.9-1.5-2.9-1.2c-4,1.6-3.9,25.5-4.2,29.5c-0.1-0.4-1.2-20.1-1.2-20.4
			c-0.5-2.9-1.4-7.1-5.3-6.9c-3.5,0.2-4.7,4.3-5.1,7.1c-0.7,5.5,0.4,10.7,0.4,16.1c0,5.3,0.9,10.5,0.7,15.9
			c-0.1,2.6,0.3,5.2-0.1,7.8c-0.4,2.7-1.6,5.1-2.8,7.5c-1,1.9-2,3.7-3,5.5c0-0.5,0-0.9-0.1-1.2c-0.2-2.3-0.5-4.6-1.1-6.8
			c-0.8-3-2.4-8.2-4.9-10.4c-5.2-4.5-6.9,4-7.4,7.5c-1.3,8.7,0.6,17.4,1.8,26.1c1.1,8.2,3.6,16.7,8.5,23.5
			C127,344.4,128.6,346.1,130.1,347.9z"/>
	</g>
	<g>
		<path style="fill:#E8A26E;" d="M400,418.6c-0.1-1.6-0.6-3.1-0.7-4.6c-0.1-2,0-4.1-0.2-6.1c-0.4-3.7-0.2-7.1-0.3-10.8
			c0-1.4-0.3-2.6-0.6-4c-0.4-2-0.1-3.9-0.3-5.9c-0.5-7.3-1.6-14.7-2.4-22c-0.8-7-0.3-14.1-1.5-21c-0.8-4.1-1.1-8.2-1.7-12.3
			c-0.6-3.5-0.2-7.2-0.9-10.6c-0.6-3.1-0.9-6.1-1.8-9.2c-0.9-3.1-2.5-4.5-5.4-5.8c-3.2-1.5-6.4-3.2-9.9-4c-3.6-0.9-7.4-1-11.1-1
			c-1.9,0-3.9-0.2-5.8,0.1c-2,0.2-3.6,1.1-5.5,1.7c-2.5,0.8-6.5,0.4-8.3,2.6c-0.1,0.2-0.2,0.3-0.3,0.5c-5-0.6-10.8,0.5-15.1,2.7
			c-4.7,2.5-7.4,7.3-9.3,12.1c-4.7,11.7-8.1,24.7-8.9,37.3c-0.5,7.8-1.3,15.7-2.4,23.4c-0.5,3.5-0.5,6.9-0.9,10.4
			c-0.3,3.6-1,7.3-1,11c0,4.8-1.8,10.1-0.3,14.8c1.4,4.4,7,7.2,11.3,7.9c3.5,0.6,7.1,0.1,10.5,0.5c3.8,0.4,7.4,1,11.2,1.1
			c3.6,0,7.1,0.5,10.7,0.7c4,0.2,8.1,0,12.1,0c6.7,0.1,13.6-0.2,20.2-0.9c3.2-0.3,6.4-1,9.6-1.2c2.2-0.2,4.7-0.5,6.5-1.7
			C399.4,422.8,400.1,420.9,400,418.6z"/>
		<path style="fill:#B37057;" d="M366.9,73.1c-0.8-3.6-1.1-8.5-5.6-9.1c-8.7-1.2-9.4,12.3-9.9,17.9c-1,11.7-1.4,68.9-2.3,80.6
			c-0.5,6,0.1,12.2,0.2,18.3c0.1,6.1-0.8,12.2-0.7,18.3c0.1,7.1,0.4,14.3-0.4,21.4c-0.4,3.5-0.9,7-1.1,10.5c-0.1,3.6,0.5,7,0.7,10.6
			c0.4,6.7,0.6,13.5,0.9,20.2c0.2,3.5,0.5,7,0.5,10.5c0,1.5-0.1,3.1,0,4.6c0.1,1.8,0.7,3.6,0.7,5.4c0,1.5,1.2,2.3,2.4,2.4
			c0.3,0.9,1.1,1.5,2.3,1.5c2.5,0,5.2-0.4,7.7-0.9c1.2-0.3,1.7-1.3,1.8-2.4c0.3-2.8-0.7-5.1-1.1-7.8c-0.5-3.1-0.2-6.3-0.2-9.4
			c0-3.2-0.1-6.3,0-9.5c0.1-3.1,0.8-6.1,1.3-9.2c0.8-5.5,1-11.1,1.6-16.5c0.3-2.8-0.1-5.6,0.3-8.4c0.5-3.1,0.5-6.1,0.5-9.2
			c-0.1-6.2,0.8-12.3,0.9-18.5c0-6.4-0.2-12.8-0.3-19.2c-0.1-6.5,0.8-12.9,0.8-19.4c0-6.4,0-12.8,0-19.3
			C367.8,130.5,368.2,78.9,366.9,73.1z"/>
		<path style="fill:#C57F68;" d="M379.5,294.1c-0.7-3.7-1.9-9.2-4.8-11.9c-1.2-1.1-2.8-1.7-4.4-1.8c-2.5-0.2-4.6-1.1-7.1-1.4
			c-5.1-0.6-11.5-0.4-16.3,1.1c-4.3,1.4-8.1,3.5-9,8.3c-0.4,2.4,0,4.9-0.2,7.3c-0.2,3.6-0.7,7.2-0.7,10.8c0,1.1,0.6,1.8,1.3,2.2
			c0.9,1.3,2.5,2,4.4,2.3c5.1,0.8,10.9,0.4,16.1,0.1c2.8-0.1,5.5-0.6,8.3-0.9c2.5-0.2,4.8-0.2,7.3-0.2c3.5,0,5.2-1.9,5.7-5.2
			C380.6,301.3,380.2,297.6,379.5,294.1z"/>
		<path style="fill:#FAC494;" d="M326.6,381.9c-0.4-1.8-2.9-2.5-4.2-1.1c-4.2,4.8-5.3,12.4-6.4,18.4c-1.3,7-3.3,14.1-3.5,21.3
			c-0.1,0.4-0.2,0.9-0.1,1.3c0.2,2.8,3,3,5,3.6c2.4,0.8,5.1,2.1,7.4,0.3c2-1.5,2.1-4.2,2.1-6.5c0-3.7,0.6-7.3,0.6-11.1
			C327.6,399.7,328.6,390.2,326.6,381.9z"/>
		<path style="fill:#FAC494;" d="M351,416.1c0-2.1,0.3-4.2,0.2-6.3c-0.2-2.2-0.6-4.4-0.7-6.6c-0.2-4-0.5-7.9-1.2-11.9
			c-0.6-3.7-0.7-7.9-2.6-11.2c-1.1-1.8-4-1.5-4.6,0.6c-0.9,3.4-1.6,6.9-1.7,10.4c0,4-0.6,7.9-0.8,11.9c-0.1,4-0.2,7.9-0.7,11.9
			c-0.3,1.9-0.2,3.9-0.4,5.8c-0.2,1.9-0.9,3.5-0.9,5.4c0,2,2,2.8,3.5,2.2c2,1.8,5.9,1.5,8.9,0.8c0.8-0.2,1.6-0.9,1.7-1.7
			C352.2,423.5,351,419.9,351,416.1z"/>
		<path style="fill:#FAC494;" d="M374.8,419.4c-0.2-2.4-0.5-5-1-7.3c-1.3-6-1.7-12.5-2.9-18.6c-0.8-4.2-0.9-10.2-4.4-13.2
			c-1.3-1.1-2.9-0.8-3.9,0.5c-1.3,1.7-0.9,4.5-0.7,6.4c0.2,3.5,0.1,7,0.1,10.5v27.6c0,1.5,1.1,2.3,2.3,2.4c3.1,0.7,9,2.3,10.5-1.7
			C375.3,424.3,374.9,421.3,374.8,419.4z"/>
		<path style="fill:#FAC494;" d="M393.4,416.6c-0.7-4.4-1.2-8.8-1.7-13.2c-1-7.4-2.5-15.8-5.7-22.6c-0.7-1.5-2.9-1.6-3.9-0.5
			c-2.4,2.5-1.3,5.2-1,8.3c0.4,4.2,0.3,8.3,0.7,12.5c0.4,4,0.2,8,0.1,12c-0.1,2.1,0.1,4.2,0,6.2c0,2.1-0.8,4-0.8,6.1
			c0,2.5,2.9,3,4.3,1.7c2.7,0.5,6.5-0.8,7.8-2.6C394.9,422.2,393.8,419.1,393.4,416.6z"/>
	</g>
	<g>
		<path style="fill:#E83B3F;" d="M290,1.8c-0.4-2.5,0.7-6.1-1.4-8.2c-0.5-0.5-2-0.7-2.3-1c-0.1-0.2,0-1.9-0.2-2.4
			c-0.7-1.8-2.3-2.1-3.9-2.2c-0.3-2-0.7-4.1-2.7-5.1c-1.2-0.5-3.1-0.2-3.3,1.4c-0.3,1.7-0.1,3.3,0.1,4.9c-1.7,0.1-3.6,0.2-4.8,1.5
			c-0.8,0.9-0.9,1.9-0.7,2.8c-1.8,0.2-3.6,0.7-4.8,2.1c-1.6,1.9-0.7,5.6-0.7,7.8c0,1.3,0.9,2,1.9,2.2c0,0.2,0.1,0.3,0.1,0.4
			c0.6,2.3,2.3,2.6,4.4,2.6c3.3,0,6.6,0.2,9.9-0.1c1.6-0.1,3-0.4,4.6-0.4c1,0,2.1,0,2.9-0.6C291,6.2,290.3,3.6,290,1.8z"/>
		<path style="fill:#4CB79C;" d="M312.7,112.5c-0.3-2.8,0.1-5.6,0-8.4c-0.2-5.9-1-11.7-2.1-17.5c-0.5-2.8-0.8-5.5-1.1-8.3
			c-0.3-3-1.5-6-1.3-9c0.1-2.4,1.2-4.4,2-6.6c1-2.6,1.9-5.3,3-7.9c2.3-5.4,4.6-11,3.9-17c-0.6-4.9-3.3-10-6.7-13.5
			c-3.7-3.8-9.5-3.7-13.3-7.3c-2.2-2.1-3.2-4.5-3.9-7.3c-0.6-2.4,0-4.9-1.1-7.2c-0.4-0.9-1.7-1.2-2.6-1c-1.9,0.4-3.5,0.9-5.5,0.9
			c-2.2,0-4.4,0-6.6,0c-3.9,0-7.7-0.5-11.5,0.1c-0.7,0.1-1.4,0.9-1.6,1.6c-0.9,3.8,1.8,9.6-1.4,12.4c-3.3,2.9-7.6,4.6-11,7.3
			c-2.9,2.3-4.6,5.6-5.6,9.1c-0.5,1.9-0.7,3.8-0.8,5.7c-0.2,2.3-0.9,4.5-0.7,6.8c0.5,3.8,2.1,7.1,3.4,10.6c-0.1,0.2,0.4,5.4,0.8,7.7
			c0.6,3.2-0.2,6.8-0.3,10.1c-0.2,6.2-0.2,12.4-1.2,18.5c-0.9,5.4-1.6,10.8-2.1,16.2c-0.4,5.7,0,11.6,0,17.4c0,2.3,0.5,4.6,0.7,6.9
			c0.1,2.7,0.3,5.2,0.9,7.9c0.9,4.6,0.7,9.9,4.7,13c1.6,1.2,3,1.3,4.9,1.6c2.8,0.4,5.3,1.5,8.1,1.8c2.4,0.2,4.8,0.9,7.2,0.8
			c2.5-0.1,5-0.9,7.5-1.2c5.8-0.5,11.5-0.9,17.2-1.9c4.6-0.8,8.5-2.8,12.1-5.8c3.3-2.8,4.8-7,5.1-11.2c0.2-2.4,0.6-4.9,0.7-7.3
			c0-3.1-0.6-6.3-0.9-9.5C313.5,118.3,313,115.4,312.7,112.5z"/>
		<path style="fill:#E83B3F;" d="M296.7,87.6c-0.2-9.1-1.9-17.6-5-26.1c-1.2-3.4-2.5-6.4-4.7-9.2c-1.7-2.2-3.3-2.7-5.7-2.8
			c-0.5-0.3-1-0.6-1.5-0.8c-1.4-0.5-2.9-0.8-4.4-0.7c-3,0.2-5.7,2.3-7.5,4.6c-3.9,5-5.3,12.8-6.1,18.9c-1.1,8.4-1.8,16.8-1.8,25.3
			c0,7.5-0.2,15.1,1.8,22.4c1.6,5.9,4.8,9.9,10.8,11.5c5,1.3,11.2,1.9,15.5-1.3c5.4-4.1,6.7-10.4,7.8-16.7c0.7-3.9,1.4-7.7,1.4-11.6
			C297.3,96.5,296.8,92,296.7,87.6z"/>
	</g>
	<g>
		<path style="fill:#E83B3F;" d="M241.2,207.8c-1.6-2.4-4-4.5-6.1-6.5c-2.2-1.9-5.2-3.7-7.7-1.3c-0.7,0.7-1.2,2-0.8,3
			c0.8,1.9,1.8,3.3,3.2,4.9c0.6,0.6,1,1.4,1.5,2c0.5,0.7,1.3,1.3,1.7,2.1c0.2,0.4,0.5,0.7,0.8,0.9c1.3,1.3,3.9,1.4,5-0.4
			c-0.2,0.3-0.2,0.2,0.5-0.1c0.3-0.1,0.6-0.3,0.9-0.5C241.5,211.2,242.2,209.2,241.2,207.8z"/>
		<path style="fill:#76ADDE;" d="M282.5,255.3c-0.8-7-2.5-15.4-7.7-20.5c-6-5.9-10.7-13.5-15.7-20.4c-3.5-4.7-9.3-11.3-15.9-10.8
			c-3.3,0.3-5.5,2.3-7.3,4.9c-1.9,2.7-4.6,5.7-5.8,8.8c-0.3,0.9-0.1,1.8,0.5,2.6c0.1,0.4,0.4,0.8,0.7,1.1c2.7,2.8,4.9,6.5,6.8,9.9
			c2.6,4.7,0.8,8.3-2.6,11.9c-5,5.3-11.4,9.1-15,15.6c-7.6,13.7-6.5,31.5-5.6,46.5c1,17.4,3.2,34.7,4.6,52.1c0.6,8,1.6,16,2.2,24
			c0.4,5.9,1.6,12.4,7.6,14.7c6.6,2.6,14.8,1.1,21.7,1.2c3.6,0,6.9-0.6,10.4-0.8c3.1-0.3,7,0.1,9.9-1.2c5.8-2.7,7.2-9.5,8-15.3
			c1.3-8.2,0.4-16.6,0.8-24.8c0.4-8,0.4-16,1.1-23.9c0.8-8.8-0.5-17.8,0.1-26.7c0.3-3.9,1-7.8,1.3-11.8c0.3-4.7,0.1-9.4,0.1-14
			c0-4.1,0.3-8,0.6-12.1C283.6,262.8,283,258.9,282.5,255.3z"/>
		<path style="fill:#9CC542;" d="M271.1,284.1c-0.3-6.9-2.1-13.3-8.9-16.1c-6.3-2.5-14.9-2.4-21.5-1.3c-7.1,1.2-14.1,1-16.4,8.4
			c-0.5,0.5-0.8,1.2-0.8,2.1c0,10.2,0.6,20.4,2.1,30.5c1.4,9.8,2.5,20.6,5.8,30c2.3,6.4,8.8,6.9,14.7,6.8c4-0.1,7.9-0.3,11.9-0.9
			c3.7-0.6,7.3-0.8,9.7-4c4.8-6.6,3.4-17,3.4-24.6C271,304.7,271.5,294.3,271.1,284.1z"/>
		<path style="fill:#E83B3F;" d="M257.2,214.4c-0.1,0-0.2,0.1-0.3,0.1c-0.9,0.3-1.8,1-2.1,1.9c-1.2,1.2-3.3,1.8-4.6,2.8
			c-1.8,1.3-3.3,2.9-5.2,4c-2.8,1.6-6.8,4-7.6,7.4c-0.8,3.8,5,5.4,5.9,1.6c0.3-1.2,2.5-2.4,3.4-3c1.9-1.2,3.7-2.1,5.4-3.6
			c2.2-1.9,5-3,7.1-5c0.6-0.3,1.1-0.8,1.3-1.6c0-0.1,0.1-0.1,0.1-0.2C261.9,216.7,259.7,213.5,257.2,214.4z"/>
	</g>
	<g>
		<path style="fill:#9CC542;" d="M28.7,31.5c-0.4-2.6-0.7-5.2-0.6-7.9c0.1-2.2,0.6-4.3,0.7-6.5c0.1-2.1,0-4.3-0.1-6.5
			c-0.2-2.6-1.1-5-1.3-7.6C27-1,27.1-5.1,26.4-9.1c-0.2-0.9-0.2-1.8-0.3-2.7c0.2-1.4,0.4-2.8,0.5-4.1c0.7-5.4-0.8-12.6-5.1-16.3
			c-2.2-1.9-5.3-2.8-8.2-2.3C12.6-34.4,11.8-34,11-34c-1.1,0.1-2.1-0.3-3.2-0.5c-1.9-0.4-3.8-0.7-5.7-0.8c-2.3-0.1-4.6,0.2-6.9-0.2
			c-2.1-0.3-4.1-0.7-6.2-1.1c-2.2-0.4-4.4-0.9-6.6-1.2c-2.3-0.3-4.3,0.5-6.6,0.5c-0.6,0-1.1,0.3-1.5,0.6c-4.2,0-8.5-0.1-12.7,0.5
			c-3.3,0.5-7.4,0.4-9.6,3.4c-2.4,3.3-2.8,8.4-3.6,12.3c-1,4.8-1.8,9.7-1.7,14.7c0.1,5.2,0.5,10.4-0.2,15.6c-0.6,4.5-1,9.1-0.5,13.6
			c0.5,4.7,0.5,9.5,1.2,14.1c0.6,3.8,0.8,8,3.3,11.1c1.1,1.3,2.6,2.2,3.7,3.5c1.3,1.6,1.3,3.9,1.4,5.9c0.1,3.9,0.6,7.6,0.9,11.5
			c0.3,4.7,1.3,9.7,0.6,14.5c-0.6,4.2-0.2,8.6,0.5,12.8c0.9,5,0.4,10.1,0.8,15.1c0.4,4.8,0.4,9.6,0.3,14.4c0,0.9,0,1.6,0.2,2.4
			c0.3,1.2,0.4,1-0.6,1.5c-1.3,0.6-3,0.8-4.3,1.5c-2.6,1.4-3.7,3.9-2.8,6.8c1,3.1,5.4,4,8.2,5c9.3,3.5,19.1,0.8,28.6,0.5
			c5-0.2,10.1-1.3,15-1.9c2.3-0.3,4.7-0.5,7-0.8c2.5-0.3,4.9-1.4,7.5-1.4c3.4,0,7.4-0.1,9.7-3c2-2.6,0.9-5.5-1.7-7
			c-1.2-0.7-2.7-1-3.9-1.8c-1.7-1-1.3-2.4-1.1-4.3c0.5-4.9,0-9.8,0.1-14.6c0.1-4.9,0.7-9.7,0.7-14.6c-0.1-4.9-0.3-9.9,0.3-14.7
			c0.6-4.8-0.1-9.5,0.4-14.2c0.2-2,0.7-3.9,0.6-5.9c0-1.4-0.3-2.8,0.3-4c0.5-0.9,1.5-1.4,2.3-2c2.6-2.1,4-5.4,4-8.7
			c0-2.3,0.5-4.5,0.6-6.8C29.5,36.1,29,33.8,28.7,31.5z"/>
		<path style="fill:#8FD2E7;" d="M16.3-3.3c-0.3-4.6,2-12.9-4.1-14.6C9-18.7,5.2-18.4,2-18.7c-2.3-0.2-4.7-0.6-7-0.8
			c-2.6-0.3-5.2,0.1-7.8-0.3c-4.1-0.6-8.3-1.5-12.5-1.9c-2.1-0.2-4.2,0-6.4,0c-1.9,0-3.5-0.3-5.3-0.5c-0.2-0.1-0.4-0.1-0.6-0.1
			c-0.1,0-0.3,0-0.4,0c-1.8-0.1-2.3,1.7-1.7,2.9c-1.1,2-0.6,4.5-0.5,6.7C-40.2-8.3-40.6-4-41,0.3c-0.4,4-0.5,8-0.6,12
			c-0.1,3.9-0.4,7.7,0.3,11.6c0.5,2.6,0.6,6.8,2.5,8.8c2,2.2,6.9,2,9.6,2.4c4,0.5,8.1,1,12.1,1.3c4.5,0.3,9,0.1,13.4,0.8
			c3.2,0.5,6.3,0.8,9.5,1c2.4,0.2,5.2,0.5,7-1.4c1.6-1.6,2-4.3,2.4-6.4c0.5-3.4,1.2-6.8,1.4-10.3C17.2,12.3,16.8,4.5,16.3-3.3z"/>
	</g>
	<g>
		<path style="fill:#76ADDE;" d="M685.7-1.8c-0.2-3.5-1.3-6.8-1.4-10.3c-0.1-3.9,0.1-7.7,0.1-11.6c0-4.2-0.7-8.4-0.8-12.6
			c-0.2-4,0.2-8.1,0.2-12.1c0-4,0-8-0.1-12.1c-0.1-4,0.8-7.8,0.9-11.8c0.1-4.4-0.2-8.7-0.1-13.1c0.1-3.9-0.6-7-1.3-10.8
			c-0.5-3-0.8-5.2-3.5-7.2c-2.1-1.6-4.4-1.2-6.7-1.1c-0.2-2.2,0.2-4.4,0.2-6.5c0-2.8-0.4-5.7-1.6-8.3c-0.8-1.8-2.3-3.4-3.6-4.9
			c-1.5-1.8-3.4-2.6-5.7-3.1c-5.3-1-11.2-0.6-16.6-0.4c-2.7,0.1-5.4,0.6-8,0.9c-2.6,0.3-5.2,0.6-7.6,1.4c-4.4,1.3-9.3,1.1-12.4,5.1
			c-1.3,1.7-2,3.8-2.3,5.9c-0.5,2.7-1,5.5-1.2,8.3c-0.1,1.2,0.1,1.5-0.9,1.8c-0.6,0.2-2.1,0.1-2.8,0c-1.2-0.3-1.2-0.9-1.9-1.9
			c-0.8-1.3-1.9-2.4-2.9-3.5c-3.6-3.7-5.4-7.1-11-7.7c-6.2-0.7-12.6-3.1-18.9-2.3c-2.7,0.3-5.6,1.2-8.1,2.5c-0.9,0.5-2,0.9-2.8,1.5
			c-1,0.7-1.6,1.8-2.5,2.7c-0.1,0.1-0.1,0.1-0.2,0.2c-0.3,0.1-0.5,0.2-0.8,0.4c-2.3,2-4.6,3.7-6.5,6.1c-2,2.4-2.6,4.7-2.8,7.8
			c-0.7,7.7-1.5,15.4-2,23.1c-0.5,7.7-0.4,15.4-0.5,23.1c0,7.7,0.7,15.1,1.3,22.8c0.3,3.9,0.4,7.8,0.7,11.6c0.3,3.7,1,7.3,1.3,11
			c0.5,7,0.7,14.2,1.6,21.2c0.9,6.5,0,13.4,2.1,19.6c0.7,2.2,1.5,4.1,3.3,5.6c2.4,2,5.8,2.4,8.7,3.1c7,1.6,14.1,1.4,21.3,1.3
			c7.2-0.2,14.2,0.1,21.3-1.4c7.8-1.6,15.4-2.5,23.3-2.6c3.8-0.1,7.6,0.1,11.4-0.1c3.7-0.2,7.2-1,10.8-1.6c3.3-0.5,6.7-0.3,10-0.8
			c3.4-0.5,6.7-1.7,9.9-3c6-2.6,7.2-8.1,7.9-14c0.4-3.4,0.4-6.7,0.5-10.1C685.3,6.1,686,2.1,685.7-1.8z M627.1-116.5
			c3.7-2.4,7.6-2.5,11.7-2.5c4.6,0,9-1.4,13.7-1.2c1.3,0.1,2.2,0,3.4-0.4c0.5-0.2,1-0.4,1.5-0.5c1.6,0,2.8,1.4,3.7,2.7
			c1.4,2.1,2.7,5.8,2.5,8.8c-0.3,0.1-0.5,0.1-0.8,0.2c-2.3,0.4-4.7,0.6-7,0.9c-3.8,0.5-7.7,0.7-11.5,1.3c-4.5,0.7-9,0.4-13.5,0.7
			c-2.6,0.2-5.6,0.2-8,1.5c-0.1-0.2-0.1-0.4-0.1-0.6C622.8-110.1,623.4-114.1,627.1-116.5z"/>
		<path style="fill:#8FD2E7;" d="M671.5-6.8c0.1-3.4,0.4-6.7,0.4-10.1c-0.2-13-1.5-26-2.6-39c-0.5-6.3-0.2-12.8-1.3-19
			c-0.3-1.9-0.4-4.7-1.9-6.2c-0.1-0.2-0.3-0.3-0.5-0.4c-1.9-2.6-6.6-2.6-9.5-2.7c-5.6-0.3-11.3,0-16.9,0c-2.8,0-5.6-0.3-8.5-0.4
			c-2.6-0.1-5.1,0.3-7.7,0.4c-5.5,0.2-10.9,0.4-16.4,0.1c-5.8-0.3-11.7,0.3-17.6-0.4c-4.9-0.6-10.1,0.6-15.1,0.7
			c-2.7,0-7.3-0.4-6.8,3.6c0,0.1,0,0.2,0,0.3c-0.1,0.2-0.1,0.4-0.1,0.6c0,6.8,0.3,13.7,0.1,20.5c-0.2,6.8-0.4,13.5,0.3,20.3
			c0.3,3.1,0.7,6.1,1,9.2c0.3,3.5,0,7,0.3,10.5c0.5,6.4,0.4,12.8,0.9,19.1c0.4,4.9,1.5,10.9,4.9,14.7c1.3,1.5,3.1,2,5,2.2
			c3.1,0.4,6.2,0.6,9.3,1.4c6.3,1.6,12.3,3.7,18.9,4.1c6.4,0.5,13.2,0.5,19.5-0.3c12.6-1.7,25-4,36.9-8.7c2.2-0.9,4.5-1.6,5.7-3.8
			c1.3-2.1,1.3-4.7,1.4-7.1C671.7-0.3,671.5-3.6,671.5-6.8z"/>
	</g>
	<g>
		<path style="fill:#9CC542;" d="M491.7,1.7c-0.6-4.9-0.9-9.8-1.5-14.7c-0.7-5.5-0.6-11-1.2-16.5c-0.7-5.8-0.1-11.5-1-17.3
			c-0.3-1.8-0.9-3.6-1-5.5c-0.1-1.4,0.1-2.7,0-4.1c-0.1-1.6-0.6-3.1-0.8-4.7c-0.1-1.5-0.1-3-0.3-4.5c-0.1-0.5-0.1-1-0.2-1.4
			c0-0.6,0-1.1,0-1.7c0-7.5,1.3-15.7-3.1-22.2c-3.2-4.6-9-5.9-14.3-6.2c-3-0.2-6.2-0.4-9.2,0.1c-0.7,0.1-1.4,0.3-2.1,0.4
			c-0.2,0-0.4,0-0.5,0c-6.4,0-13-0.2-19.3,1.3c-4.9,1.2-10,4.1-12.4,8.7c-2.6,5.1-2.9,11.1-2.8,16.7c0,0.2,0,0.3,0.1,0.5
			c-0.2,5.2-0.1,10.4-0.1,15.6c0,6.5,0.2,12.9,0.1,19.4c-0.1,5.7-1.2,11.2-1.3,16.9c-0.1,5.4-1.6,10.9-0.9,16.3
			c0.5,3.9,0.6,8.3,2.9,11.6c2.7,3.9,8.6,4.6,12.9,5.3c5.9,1,11.8,1.5,17.8,1.4c6.1-0.1,12.3-0.1,18.4-0.8c2.9-0.3,5.7-0.8,8.6-1.2
			c2.4-0.4,4.9-0.4,6.9-2C491.1,10.6,492.3,6.1,491.7,1.7z"/>
	</g>
	<g>
		<path style="fill:#E83B3F;" d="M465.7,156.2c4.9-6.8,7.4-15.3,8.5-23.5c1.2-8.7,3.1-17.4,1.8-26.1c-0.5-3.4-2.2-12-7.4-7.5
			c-2.5,2.1-4.1,7.3-4.9,10.4c-0.6,2.2-0.8,4.6-1.1,6.8c0,0.4-0.1,0.8-0.1,1.2c-1-1.8-2-3.7-3-5.5c-1.2-2.3-2.4-4.8-2.8-7.5
			c-0.4-2.6,0-5.2-0.1-7.8c-0.1-5.3,0.7-10.5,0.7-15.9c0-5.4,1.2-10.6,0.4-16.1c-0.4-2.8-1.6-6.9-5.1-7.1c-3.9-0.2-4.8,4-5.3,6.9
			c-0.1,0.4-1.2,20.1-1.2,20.4c-0.3-4-0.2-27.9-4.2-29.5c-0.9-0.4-2.5,0.2-2.9,1.2c-2.5,5.8-3.4,11.7-3.4,18c0,3.3,0.1,6.6-0.5,9.8
			c0,0.2-0.2,0.7-0.4,1.3c-0.1-0.6-0.1-1.2-0.2-1.8c-0.2-3.2-0.2-6.3-0.4-9.5c-0.2-3.1-0.4-6.3-1.4-9.2c-0.9-2.7-2.9-5.6-6.1-4.6
			c-3.6,1.1-4,5.5-4.2,8.6c-0.2,4-0.8,8-1.1,12c-0.1-1.1-0.2-2.1-0.4-3.2c-0.5-3.3-0.4-9.7-3.4-12.1c-1.1-0.9-2.5-1-3.6,0
			c-2.6,2.5-3.3,6.5-3.7,9.9c-0.5,5.3,0,10.9,0,16.3c0,10.2-1.4,20.4-2.2,30.6c-0.4,5.1-1.6,10.2-1.6,15.3c0,5.1-0.4,10.8,0.8,15.8
			c0.5,2.2,1.5,4.3,2.4,6.4c0.9,2.2,2.6,4.5,3.1,6.8c0.5,2-0.3,4.9-0.6,7c-0.4,2.7-0.3,5.4-0.9,8c-1.3,6-0.5,11.7-1,17.8
			c-0.3,3.5-0.5,7.1-1.1,10.6c-0.3,1.5-0.6,3-0.8,4.6c-0.1,0.5,0.1,2.2-0.2,2.6c-1.3,1.5-0.5,3.4,0.9,4.1c0.5,2,3.2,3.4,4.8,4.3
			c3.1,1.7,6.5,2.7,9.5,4.6c3.2,2,7,3.3,10.8,4c3.9,0.8,7.9-0.1,11.8-0.7c3.6-0.5,7.8-1.1,11.1-2.5c3.7-1.5,6.9-4,9.8-6.7
			c6-5.8,1.7-14.5,0.1-21.3c-1-4.6-1.5-9.3-2.3-13.9c-0.4-2-1-3.8-1.5-5.7c-0.7-2.2-0.8-4.5-1.3-6.8c-0.4-2-1.2-3.9-1.9-5.9
			c-0.5-1.4-1.6-3.5-1.7-5c-0.1-1.9,1.9-3.6,3-4.9C462.7,159.8,464.3,158.1,465.7,156.2z"/>
		<path style="fill:#E83B3F;" d="M512,161.6c1.1,1.4,3.1,3,3,4.9c-0.1,1.5-1.2,3.6-1.7,5c-0.7,2-1.5,3.8-1.9,5.9
			c-0.5,2.3-0.6,4.5-1.3,6.8c-0.6,1.9-1.2,3.7-1.5,5.7c-0.9,4.6-1.3,9.3-2.3,13.9c-1.5,6.8-5.8,15.4,0.1,21.3
			c2.8,2.8,6.1,5.2,9.8,6.7c3.4,1.4,7.5,1.9,11.1,2.5c3.8,0.6,7.9,1.4,11.8,0.7c3.7-0.7,7.5-2,10.8-4c3-1.9,6.4-2.9,9.5-4.6
			c1.6-0.9,4.4-2.3,4.8-4.3c1.3-0.7,2.2-2.6,0.9-4.1c-0.3-0.4-0.2-2.1-0.2-2.6c-0.2-1.5-0.5-3-0.8-4.6c-0.6-3.5-0.8-7.1-1.1-10.6
			c-0.5-6,0.3-11.8-1-17.8c-0.6-2.6-0.5-5.4-0.9-8c-0.3-2.1-1.1-5-0.6-7c0.5-2.3,2.2-4.6,3.1-6.8c0.9-2.1,1.8-4.2,2.4-6.4
			c1.2-5,0.8-10.7,0.8-15.8c0-5.1-1.2-10.2-1.6-15.3c-0.8-10.2-2.2-20.4-2.2-30.6c0-5.4,0.6-11,0-16.3c-0.4-3.4-1.1-7.4-3.7-9.9
			c-1.1-1-2.5-0.9-3.6,0c-3,2.4-2.9,8.7-3.4,12.1c-0.2,1.1-0.3,2.1-0.4,3.2c-0.3-4-0.9-8-1.1-12c-0.2-3.1-0.6-7.5-4.2-8.6
			c-3.3-1-5.2,1.9-6.1,4.6c-1,2.9-1.1,6.2-1.4,9.2c-0.2,3.2-0.2,6.3-0.4,9.5c0,0.6-0.1,1.2-0.2,1.8c-0.2-0.6-0.4-1.1-0.4-1.3
			c-0.6-3.2-0.5-6.5-0.5-9.8c0-6.3-0.8-12.2-3.4-18c-0.4-0.9-1.9-1.5-2.9-1.2c-4,1.6-3.9,25.5-4.2,29.5c-0.1-0.4-1.2-20.1-1.2-20.4
			c-0.5-2.9-1.4-7.1-5.3-6.9c-3.5,0.2-4.7,4.3-5.1,7.1c-0.7,5.5,0.4,10.7,0.4,16.1c0,5.3,0.9,10.5,0.7,15.9
			c-0.1,2.6,0.3,5.2-0.1,7.8c-0.4,2.7-1.6,5.1-2.8,7.5c-1,1.9-2,3.7-3,5.5c0-0.5,0-0.9-0.1-1.2c-0.2-2.3-0.5-4.6-1.1-6.8
			c-0.8-3-2.4-8.2-4.9-10.4c-5.2-4.5-6.9,4-7.4,7.5c-1.3,8.7,0.6,17.4,1.8,26.1c1.1,8.2,3.6,16.7,8.5,23.5
			C508.9,158.1,510.5,159.8,512,161.6z"/>
	</g>
	<g>
		<path style="fill:#E8A26E;" d="M922.7,253.5c-0.1-1.6-0.6-3.1-0.7-4.6c-0.1-2,0-4.1-0.2-6.1c-0.4-3.7-0.2-7.1-0.3-10.8
			c0-1.4-0.3-2.6-0.6-4c-0.4-2-0.1-3.9-0.3-5.9c-0.5-7.3-1.6-14.7-2.4-22c-0.8-7-0.3-14.1-1.5-21c-0.8-4.1-1.1-8.2-1.7-12.3
			c-0.6-3.5-0.2-7.2-0.9-10.6c-0.6-3.1-0.9-6.1-1.8-9.2c-0.9-3.1-2.5-4.5-5.4-5.8c-3.2-1.5-6.4-3.2-9.9-4c-3.6-0.9-7.4-1-11.1-1
			c-1.9,0-3.9-0.2-5.8,0.1c-2,0.2-3.6,1.1-5.5,1.7c-2.5,0.8-6.5,0.4-8.3,2.6c-0.1,0.2-0.2,0.3-0.3,0.5c-5-0.6-10.8,0.5-15.1,2.7
			c-4.7,2.5-7.4,7.3-9.3,12.1c-4.7,11.7-8.1,24.7-8.9,37.3c-0.5,7.8-1.3,15.7-2.4,23.4c-0.5,3.5-0.5,6.9-0.9,10.4
			c-0.3,3.6-1,7.3-1,11c0,4.8-1.8,10.1-0.3,14.8c1.4,4.4,7,7.2,11.3,7.9c3.5,0.6,7.1,0.1,10.5,0.5c3.8,0.4,7.4,1,11.2,1.1
			c3.6,0,7.1,0.5,10.7,0.7c4,0.2,8.1,0,12.1,0c6.7,0.1,13.6-0.2,20.2-0.9c3.2-0.3,6.4-1,9.6-1.2c2.2-0.2,4.7-0.5,6.5-1.7
			C922,257.7,922.8,255.7,922.7,253.5z"/>
		<path style="fill:#B37057;" d="M889.6-92c-0.8-3.6-1.1-8.5-5.6-9.1c-8.7-1.2-9.4,12.3-9.9,17.9c-1,11.7-1.4,68.9-2.3,80.6
			c-0.5,6,0.1,12.2,0.2,18.3c0.1,6.1-0.8,12.2-0.7,18.3c0.1,7.1,0.4,14.3-0.4,21.4c-0.4,3.5-0.9,7-1.1,10.5c-0.1,3.6,0.5,7,0.7,10.6
			c0.4,6.7,0.6,13.5,0.9,20.2c0.2,3.5,0.5,7,0.5,10.5c0,1.5-0.1,3.1,0,4.6c0.1,1.8,0.7,3.6,0.7,5.4c0,1.5,1.2,2.3,2.4,2.4
			c0.3,0.9,1.1,1.5,2.3,1.5c2.5,0,5.2-0.4,7.7-0.9c1.2-0.3,1.7-1.3,1.8-2.4c0.3-2.8-0.7-5.1-1.1-7.8c-0.5-3.1-0.2-6.3-0.2-9.4
			c0-3.2-0.1-6.3,0-9.5c0.1-3.1,0.8-6.1,1.3-9.2c0.8-5.5,1-11.1,1.6-16.5c0.3-2.8-0.1-5.6,0.3-8.4c0.5-3.1,0.5-6.1,0.5-9.2
			c-0.1-6.2,0.8-12.3,0.9-18.5c0-6.4-0.2-12.8-0.3-19.2c-0.1-6.5,0.8-12.9,0.8-19.4c0-6.4,0-12.8,0-19.3
			C890.5-34.7,890.9-86.2,889.6-92z"/>
		<path style="fill:#C57F68;" d="M902.2,129c-0.7-3.7-1.9-9.2-4.8-11.9c-1.2-1.1-2.8-1.7-4.4-1.8c-2.5-0.2-4.6-1.1-7.1-1.4
			c-5.1-0.6-11.5-0.4-16.3,1.1c-4.3,1.4-8.1,3.5-9,8.3c-0.4,2.4,0,4.9-0.2,7.3c-0.2,3.6-0.7,7.2-0.7,10.8c0,1.1,0.6,1.8,1.3,2.2
			c0.9,1.3,2.5,2,4.4,2.3c5.1,0.8,10.9,0.4,16.1,0.1c2.8-0.1,5.5-0.6,8.3-0.9c2.5-0.2,4.8-0.2,7.3-0.2c3.5,0,5.2-1.9,5.7-5.2
			C903.3,136.2,902.8,132.5,902.2,129z"/>
		<path style="fill:#FAC494;" d="M849.3,216.8c-0.4-1.8-2.9-2.5-4.2-1.1c-4.2,4.8-5.3,12.4-6.4,18.4c-1.3,7-3.3,14.1-3.5,21.3
			c-0.1,0.4-0.2,0.9-0.1,1.3c0.2,2.8,3,3,5,3.6c2.4,0.8,5.1,2.1,7.4,0.3c2-1.5,2.1-4.2,2.1-6.5c0-3.7,0.6-7.3,0.6-11.1
			C850.2,234.6,851.3,225.1,849.3,216.8z"/>
		<path style="fill:#FAC494;" d="M873.7,251c0-2.1,0.3-4.2,0.2-6.3c-0.2-2.2-0.6-4.4-0.7-6.6c-0.2-4-0.5-7.9-1.2-11.9
			c-0.6-3.7-0.7-7.9-2.6-11.2c-1.1-1.8-4-1.5-4.6,0.6c-0.9,3.4-1.6,6.9-1.7,10.4c0,4-0.6,7.9-0.8,11.9c-0.1,4-0.2,7.9-0.7,11.9
			c-0.3,1.9-0.2,3.9-0.4,5.8c-0.2,1.9-0.9,3.5-0.9,5.4c0,2,2,2.8,3.5,2.2c2,1.8,5.9,1.5,8.9,0.8c0.8-0.2,1.6-0.9,1.7-1.7
			C874.9,258.3,873.7,254.8,873.7,251z"/>
		<path style="fill:#FAC494;" d="M897.4,254.3c-0.2-2.4-0.5-5-1-7.3c-1.3-6-1.7-12.5-2.9-18.6c-0.8-4.2-0.9-10.2-4.4-13.2
			c-1.3-1.1-2.9-0.8-3.9,0.5c-1.3,1.7-0.9,4.5-0.7,6.4c0.2,3.5,0.1,7,0.1,10.5v27.6c0,1.5,1.1,2.3,2.3,2.4c3.1,0.7,9,2.3,10.5-1.7
			C898,259.2,897.6,256.2,897.4,254.3z"/>
		<path style="fill:#FAC494;" d="M916.1,251.5c-0.7-4.4-1.2-8.8-1.7-13.2c-1-7.4-2.5-15.8-5.7-22.6c-0.7-1.5-2.9-1.6-3.9-0.5
			c-2.4,2.5-1.3,5.2-1,8.3c0.4,4.2,0.3,8.3,0.7,12.5c0.4,4,0.2,8,0.1,12c-0.1,2.1,0.1,4.2,0,6.2c0,2.1-0.8,4-0.8,6.1
			c0,2.5,2.9,3,4.3,1.7c2.7,0.5,6.5-0.8,7.8-2.6C917.6,257.1,916.5,254,916.1,251.5z"/>
	</g>
	<g>
		<path style="fill:#4CB79C;" d="M811.4,37.3c-0.3-2.8,0.1-5.6,0-8.4c-0.2-5.9-1-11.7-2.1-17.5c-0.5-2.8-0.8-5.5-1.1-8.3
			c-0.3-3-1.5-6-1.3-9c0.1-2.4,1.2-4.4,2-6.6c1-2.6,1.9-5.3,3-7.9c2.3-5.4,4.6-11,3.9-17c-0.6-4.9-3.3-10-6.7-13.5
			c-3.7-3.8-9.5-3.7-13.3-7.3c-2.2-2.1-3.2-4.5-3.9-7.3c-0.6-2.4,0-4.9-1.1-7.2c-0.4-0.9-1.7-1.2-2.6-1c-1.9,0.4-3.5,0.9-5.5,0.9
			c-2.2,0-4.4,0-6.6,0c-3.9,0-7.7-0.5-11.5,0.1c-0.7,0.1-1.4,0.9-1.6,1.6c-0.9,3.8,1.8,9.6-1.4,12.4c-3.3,2.9-7.6,4.6-11,7.3
			c-2.9,2.3-4.6,5.6-5.6,9.1c-0.5,1.9-0.7,3.8-0.8,5.7c-0.2,2.3-0.9,4.5-0.7,6.8c0.5,3.8,2.1,7.1,3.4,10.6c-0.1,0.2,0.4,5.4,0.8,7.7
			c0.6,3.2-0.2,6.8-0.3,10.1c-0.2,6.2-0.2,12.4-1.2,18.5c-0.9,5.4-1.6,10.8-2.1,16.2c-0.4,5.7,0,11.6,0,17.4c0,2.3,0.5,4.6,0.7,6.9
			c0.1,2.7,0.3,5.2,0.9,7.9c0.9,4.6,0.7,9.9,4.7,13c1.6,1.2,3,1.3,4.9,1.6c2.8,0.4,5.3,1.5,8.1,1.8c2.4,0.2,4.8,0.9,7.2,0.8
			c2.5-0.1,5-0.9,7.5-1.2c5.8-0.5,11.5-0.9,17.2-1.9c4.6-0.8,8.5-2.8,12.1-5.8c3.3-2.8,4.8-7,5.1-11.2c0.2-2.4,0.6-4.9,0.7-7.3
			c0-3.1-0.6-6.3-0.9-9.5C812.1,43,811.6,40.1,811.4,37.3z"/>
		<path style="fill:#E83B3F;" d="M795.3,12.3c-0.2-9.1-1.9-17.6-5-26.1c-1.2-3.4-2.5-6.4-4.7-9.2c-1.7-2.2-3.3-2.7-5.7-2.8
			c-0.5-0.3-1-0.6-1.5-0.8c-1.4-0.5-2.9-0.8-4.4-0.7c-3,0.2-5.7,2.3-7.5,4.6c-3.9,5-5.3,12.8-6.1,18.9c-1.1,8.4-1.8,16.8-1.8,25.3
			c0,7.5-0.2,15.1,1.8,22.4c1.6,5.9,4.8,9.9,10.8,11.5c5,1.3,11.2,1.9,15.5-1.3c5.4-4.1,6.7-10.4,7.8-16.7c0.7-3.9,1.4-7.7,1.4-11.6
			C796,21.2,795.4,16.8,795.3,12.3z"/>
	</g>
	<g>
		<path style="fill:#E83B3F;" d="M630.6,131c-1.6-2.4-4-4.5-6.1-6.5c-2.2-1.9-5.2-3.7-7.7-1.3c-0.7,0.7-1.2,2-0.8,3
			c0.8,1.9,1.8,3.3,3.2,4.9c0.6,0.6,1,1.4,1.5,2c0.5,0.7,1.3,1.3,1.7,2.1c0.2,0.4,0.5,0.7,0.8,0.9c1.3,1.3,3.9,1.4,5-0.4
			c-0.2,0.3-0.2,0.2,0.5-0.1c0.3-0.1,0.6-0.3,0.9-0.5C630.8,134.4,631.6,132.4,630.6,131z"/>
		<path style="fill:#76ADDE;" d="M671.9,178.5c-0.8-7-2.5-15.4-7.7-20.5c-6-5.9-10.7-13.5-15.7-20.4c-3.5-4.7-9.3-11.3-15.9-10.8
			c-3.3,0.3-5.5,2.3-7.3,4.9c-1.9,2.7-4.6,5.7-5.8,8.8c-0.3,0.9-0.1,1.8,0.5,2.6c0.1,0.4,0.4,0.8,0.7,1.1c2.7,2.8,4.9,6.5,6.8,9.9
			c2.6,4.7,0.8,8.3-2.6,11.9c-5,5.3-11.4,9.1-15,15.6c-7.6,13.7-6.5,31.5-5.6,46.5c1,17.4,3.2,34.7,4.6,52.1c0.6,8,1.6,16,2.2,24
			c0.4,5.9,1.6,12.4,7.6,14.7c6.6,2.6,14.8,1.1,21.7,1.2c3.6,0,6.9-0.6,10.4-0.8c3.1-0.3,7,0.1,9.9-1.2c5.8-2.7,7.2-9.5,8-15.3
			c1.3-8.2,0.4-16.6,0.8-24.8c0.4-8,0.4-16,1.1-23.9c0.8-8.8-0.5-17.8,0.1-26.7c0.3-3.9,1-7.8,1.3-11.8c0.3-4.7,0.1-9.4,0.1-14
			c0-4.1,0.3-8,0.6-12.1C673,186,672.3,182.1,671.9,178.5z"/>
		<path style="fill:#9CC542;" d="M660.4,207.3c-0.3-6.9-2.1-13.3-8.9-16.1c-6.3-2.5-14.9-2.4-21.5-1.3c-7.1,1.2-14.1,1-16.4,8.4
			c-0.5,0.5-0.8,1.2-0.8,2.1c0,10.2,0.6,20.4,2.1,30.5c1.4,9.8,2.5,20.6,5.8,30c2.3,6.4,8.8,6.9,14.7,6.8c4-0.1,7.9-0.3,11.9-0.9
			c3.7-0.6,7.3-0.8,9.7-4c4.8-6.6,3.4-17,3.4-24.6C660.3,227.8,660.8,217.5,660.4,207.3z"/>
		<path style="fill:#E83B3F;" d="M646.5,137.6c-0.1,0-0.2,0.1-0.3,0.1c-0.9,0.3-1.8,1-2.1,1.9c-1.2,1.2-3.3,1.8-4.6,2.8
			c-1.8,1.3-3.3,2.9-5.2,4c-2.8,1.6-6.8,4-7.6,7.4c-0.8,3.8,5,5.4,5.9,1.6c0.3-1.2,2.5-2.4,3.4-3c1.9-1.2,3.7-2.1,5.4-3.6
			c2.2-1.9,5-3,7.1-5c0.6-0.3,1.1-0.8,1.3-1.6c0-0.1,0.1-0.1,0.1-0.2C651.2,139.9,649,136.7,646.5,137.6z"/>
	</g>
	<g>
		<path style="fill:#9CC542;" d="M1028.7,31.5c-0.4-2.6-0.7-5.2-0.6-7.9c0.1-2.2,0.6-4.3,0.7-6.5c0.1-2.1,0-4.3-0.1-6.5
			c-0.2-2.6-1.1-5-1.3-7.6c-0.3-4.1-0.3-8.2-1-12.2c-0.2-0.9-0.2-1.8-0.3-2.7c0.2-1.4,0.4-2.8,0.5-4.1c0.7-5.4-0.8-12.6-5.1-16.3
			c-2.2-1.9-5.3-2.8-8.2-2.3c-0.8,0.1-1.6,0.5-2.4,0.6c-1.1,0.1-2.1-0.3-3.2-0.5c-1.9-0.4-3.8-0.7-5.7-0.8c-2.3-0.1-4.6,0.2-6.9-0.2
			c-2.1-0.3-4.1-0.7-6.2-1.1c-2.2-0.4-4.4-0.9-6.6-1.2c-2.3-0.3-4.3,0.5-6.6,0.5c-0.6,0-1.1,0.3-1.5,0.6c-4.2,0-8.5-0.1-12.7,0.5
			c-3.3,0.5-7.4,0.4-9.6,3.4c-2.4,3.3-2.8,8.4-3.6,12.3c-1,4.8-1.8,9.7-1.7,14.7c0.1,5.2,0.5,10.4-0.2,15.6c-0.6,4.5-1,9.1-0.5,13.6
			c0.5,4.7,0.5,9.5,1.2,14.1c0.6,3.8,0.8,8,3.3,11.1c1.1,1.3,2.6,2.2,3.7,3.5c1.3,1.6,1.3,3.9,1.4,5.9c0.1,3.9,0.6,7.6,0.9,11.5
			c0.3,4.7,1.3,9.7,0.6,14.5c-0.6,4.2-0.2,8.6,0.5,12.8c0.9,5,0.4,10.1,0.8,15.1c0.4,4.8,0.4,9.6,0.3,14.4c0,0.9,0,1.6,0.2,2.4
			c0.3,1.2,0.4,1-0.6,1.5c-1.3,0.6-3,0.8-4.3,1.5c-2.6,1.4-3.7,3.9-2.8,6.8c1,3.1,5.4,4,8.2,5c9.3,3.5,19.1,0.8,28.6,0.5
			c5-0.2,10.1-1.3,15-1.9c2.3-0.3,4.7-0.5,7-0.8c2.5-0.3,4.9-1.4,7.5-1.4c3.4,0,7.4-0.1,9.7-3c2-2.6,0.9-5.5-1.7-7
			c-1.2-0.7-2.7-1-3.9-1.8c-1.7-1-1.3-2.4-1.1-4.3c0.5-4.9,0-9.8,0.1-14.6c0.1-4.9,0.7-9.7,0.7-14.6c-0.1-4.9-0.3-9.9,0.3-14.7
			c0.6-4.8-0.1-9.5,0.4-14.2c0.2-2,0.7-3.9,0.6-5.9c0-1.4-0.3-2.8,0.3-4c0.5-0.9,1.5-1.4,2.3-2c2.6-2.1,4-5.4,4-8.7
			c0-2.3,0.5-4.5,0.6-6.8C1029.5,36.1,1029,33.8,1028.7,31.5z"/>
		<path style="fill:#8FD2E7;" d="M1016.3-3.3c-0.3-4.6,2-12.9-4.1-14.6c-3.1-0.9-6.9-0.5-10.2-0.9c-2.3-0.2-4.7-0.6-7-0.8
			c-2.6-0.3-5.2,0.1-7.8-0.3c-4.1-0.6-8.3-1.5-12.5-1.9c-2.1-0.2-4.2,0-6.4,0c-1.9,0-3.5-0.3-5.3-0.5c-0.2-0.1-0.4-0.1-0.6-0.1
			c-0.1,0-0.3,0-0.4,0c-1.8-0.1-2.3,1.7-1.7,2.9c-1.1,2-0.6,4.5-0.5,6.7c0.1,4.4-0.3,8.6-0.7,12.9c-0.4,4-0.5,8-0.6,12
			c-0.1,3.9-0.4,7.7,0.3,11.6c0.5,2.6,0.6,6.8,2.5,8.8c2,2.2,6.9,2,9.6,2.4c4,0.5,8.1,1,12.1,1.3c4.5,0.3,9,0.1,13.4,0.8
			c3.2,0.5,6.3,0.8,9.5,1c2.4,0.2,5.2,0.5,7-1.4c1.6-1.6,2-4.3,2.4-6.4c0.5-3.4,1.2-6.8,1.4-10.3C1017.2,12.3,1016.8,4.5,1016.3-3.3
			z"/>
	</g>
	<g>
		<path style="fill:#76ADDE;" d="M209.5,1003.6c-0.2-3.5-1.3-6.8-1.4-10.3c-0.1-3.9,0.1-7.7,0.1-11.6c0-4.2-0.7-8.4-0.8-12.6
			c-0.2-4,0.2-8.1,0.2-12.1c0-4,0-8-0.1-12.1c-0.1-4,0.8-7.8,0.9-11.8c0.1-4.4-0.2-8.7-0.1-13.1c0.1-3.9-0.6-7-1.3-10.8
			c-0.5-3-0.8-5.2-3.5-7.2c-2.1-1.6-4.4-1.2-6.7-1.1c-0.2-2.2,0.2-4.4,0.2-6.5c0-2.8-0.4-5.7-1.6-8.3c-0.8-1.8-2.3-3.4-3.6-4.9
			c-1.5-1.8-3.4-2.6-5.7-3.1c-5.3-1-11.2-0.6-16.6-0.4c-2.7,0.1-5.4,0.6-8,0.9c-2.6,0.3-5.2,0.6-7.6,1.4c-4.4,1.3-9.3,1.1-12.4,5.1
			c-1.3,1.7-2,3.8-2.3,5.9c-0.5,2.7-1,5.5-1.2,8.3c-0.1,1.2,0.1,1.5-0.9,1.8c-0.6,0.2-2.1,0.1-2.8,0c-1.2-0.3-1.2-0.9-1.9-1.9
			c-0.8-1.3-1.9-2.4-2.9-3.5c-3.6-3.7-5.4-7.1-11-7.7c-6.2-0.7-12.6-3.1-18.9-2.3c-2.7,0.3-5.6,1.2-8.1,2.5c-0.9,0.5-2,0.9-2.8,1.5
			c-1,0.7-1.6,1.8-2.5,2.7c-0.1,0.1-0.1,0.1-0.2,0.2c-0.3,0.1-0.5,0.2-0.8,0.4c-2.3,2-4.6,3.7-6.5,6.1c-2,2.4-2.6,4.7-2.8,7.8
			c-0.7,7.7-1.5,15.4-2,23.1c-0.5,7.7-0.4,15.4-0.5,23.1c0,7.7,0.7,15.1,1.3,22.8c0.3,3.9,0.4,7.8,0.7,11.6c0.3,3.7,1,7.3,1.3,11
			c0.5,7,0.7,14.2,1.6,21.2c0.9,6.5,0,13.4,2.1,19.6c0.7,2.2,1.5,4.1,3.3,5.6c2.4,2,5.8,2.4,8.7,3.1c7,1.6,14.1,1.4,21.3,1.3
			c7.2-0.2,14.2,0.1,21.3-1.4c7.8-1.6,15.4-2.5,23.3-2.6c3.8-0.1,7.6,0.1,11.4-0.1c3.7-0.2,7.2-1,10.8-1.6c3.3-0.5,6.7-0.3,10-0.8
			c3.4-0.5,6.7-1.7,9.9-3c6-2.6,7.2-8.1,7.9-14c0.4-3.4,0.4-6.7,0.5-10.1C209.1,1011.5,209.8,1007.5,209.5,1003.6z M151,888.9
			c3.7-2.4,7.6-2.5,11.7-2.5c4.6,0,9-1.4,13.7-1.2c1.3,0.1,2.2,0,3.4-0.4c0.5-0.2,1-0.4,1.5-0.5c1.6,0,2.8,1.4,3.7,2.7
			c1.4,2.1,2.7,5.8,2.5,8.8c-0.3,0.1-0.5,0.1-0.8,0.2c-2.3,0.4-4.7,0.6-7,0.9c-3.8,0.5-7.7,0.7-11.5,1.3c-4.5,0.7-9,0.4-13.5,0.7
			c-2.6,0.2-5.6,0.2-8,1.5c-0.1-0.2-0.1-0.4-0.1-0.6C146.7,895.3,147.3,891.4,151,888.9z"/>
		<path style="fill:#8FD2E7;" d="M195.4,998.6c0.1-3.4,0.4-6.7,0.4-10.1c-0.2-13-1.5-26-2.6-39c-0.5-6.3-0.2-12.8-1.3-19
			c-0.3-1.9-0.4-4.7-1.9-6.2c-0.1-0.2-0.3-0.3-0.5-0.4c-1.9-2.6-6.6-2.6-9.5-2.7c-5.6-0.3-11.3,0-16.9,0c-2.8,0-5.6-0.3-8.5-0.4
			c-2.6-0.1-5.1,0.3-7.7,0.4c-5.5,0.2-10.9,0.4-16.4,0.1c-5.8-0.3-11.7,0.3-17.6-0.4c-4.9-0.6-10.1,0.6-15.1,0.7
			c-2.7,0-7.3-0.4-6.8,3.6c0,0.1,0,0.2,0,0.3c-0.1,0.2-0.1,0.4-0.1,0.6c0,6.8,0.3,13.7,0.1,20.5c-0.2,6.8-0.4,13.5,0.3,20.3
			c0.3,3.1,0.7,6.1,1,9.2c0.3,3.5,0,7,0.3,10.5c0.5,6.4,0.4,12.8,0.9,19.1c0.4,4.9,1.5,10.9,4.9,14.7c1.3,1.5,3.1,2,5,2.2
			c3.1,0.4,6.2,0.6,9.3,1.4c6.3,1.6,12.3,3.7,18.9,4.1c6.4,0.5,13.2,0.5,19.5-0.3c12.6-1.7,25-4,36.9-8.7c2.2-0.9,4.5-1.6,5.7-3.8
			c1.3-2.1,1.3-4.7,1.4-7.1C195.5,1005.1,195.3,1001.8,195.4,998.6z"/>
		<path style="fill:#E83B3F;" d="M122.2,881c-2.1-4.2-5.9-3.1-9.8-3.2c-5.2,0-10.4,0.2-15.6,0.8c-3.8,0.4-8.6,0.6-11.9,2.9
			c-3.7,2.6-2.3,7-2.2,11c0,0.8,0.4,1.4,0.9,1.7c0.4,0.4,1,0.7,1.4,0.7c3.6-0.1,7.4-0.3,11.1-0.9c5.3-0.8,11-0.2,16.3-0.2
			c3.2,0,9.4,1.3,11.2-2.4C125.2,888.5,123.6,883.6,122.2,881z"/>
	</g>
	<g>
		<path style="fill:#E83B3F;" d="M290,1001.8c-0.4-2.5,0.7-6.1-1.4-8.2c-0.5-0.5-2-0.7-2.3-1c-0.1-0.2,0-1.9-0.2-2.4
			c-0.7-1.8-2.3-2.1-3.9-2.2c-0.3-2-0.7-4.1-2.7-5.1c-1.2-0.5-3.1-0.2-3.3,1.4c-0.3,1.7-0.1,3.3,0.1,4.9c-1.7,0.1-3.6,0.2-4.8,1.5
			c-0.8,0.9-0.9,1.9-0.7,2.8c-1.8,0.2-3.6,0.7-4.8,2.1c-1.6,1.9-0.7,5.6-0.7,7.8c0,1.3,0.9,2,1.9,2.2c0,0.2,0.1,0.3,0.1,0.4
			c0.6,2.3,2.3,2.6,4.4,2.6c3.3,0,6.6,0.2,9.9-0.1c1.6-0.1,3-0.4,4.6-0.4c1,0,2.1,0,2.9-0.6C291,1006.2,290.3,1003.6,290,1001.8z"/>
	</g>
	<g>
		<path style="fill:#4CB79C;" d="M25,933.5c-1.2-3.8-7.1-5.4-10.5-4.5c-7.1,1.8-14.5,1.9-21.7,2.4c-3.3,0.2-10.6,1-11.4,5.3
			c-0.4,2.3,1.4,3.2,3,4.2c1.3,0.8,0.7-0.2,0.9,1.3c0.1,0.5,0,1.2,0,1.7c0,1.6,0.2,2.9,0.6,4.3c-2.7-0.1-5.7,0.1-7.5,2.4
			c-1.1,1.3-1.5,3.1-1.5,4.8c0.1,2.7,0.7,5.3,0.6,8.1c0,0,0,0,0,0c0,0.2,0,0.4,0,0.7c0,1.2,0,2.5,0.9,3.5c1.2,1.4,3.4,1.3,5.1,1.2
			c2.5,0,5-0.1,7.6-0.1c2.5,0,4.9,0.1,7.4,0.1c1.4,0,2.8-0.2,3.9-1.2c2-2,1-6.7,0.9-9.3c0-3-0.4-6.5-3.1-8.4c-0.9-0.6-1.9-1-2.9-1.3
			c0-0.1,0-0.2,0-0.3c0-1.5,0.2-3,0-4.5c0-0.2-0.5-1.3-0.5-1.7c0.1,0.2,1.8-0.2,1.7-0.2c3.2-0.5,6.5,0.1,9.7-0.4
			c3.1-0.4,6.2-1.4,9.3-2.2c2.7-0.8,5.2-1.8,7.1-3.9C25,935,25.3,934.2,25,933.5z"/>
		<path style="fill:#9CC542;" d="M28.7,1031.5c-0.4-2.6-0.7-5.2-0.6-7.9c0.1-2.2,0.6-4.3,0.7-6.5c0.1-2.1,0-4.3-0.1-6.5
			c-0.2-2.6-1.1-5-1.3-7.6c-0.3-4.1-0.3-8.2-1-12.2c-0.2-0.9-0.2-1.8-0.3-2.7c0.2-1.4,0.4-2.8,0.5-4.1c0.7-5.4-0.8-12.6-5.1-16.3
			c-2.2-1.9-5.3-2.8-8.2-2.3c-0.8,0.1-1.6,0.5-2.4,0.6c-1.1,0.1-2.1-0.3-3.2-0.5c-1.9-0.4-3.8-0.7-5.7-0.8c-2.3-0.1-4.6,0.2-6.9-0.2
			c-2.1-0.3-4.1-0.7-6.2-1.1c-2.2-0.4-4.4-0.9-6.6-1.2c-2.3-0.3-4.3,0.5-6.6,0.5c-0.6,0-1.1,0.3-1.5,0.6c-4.2,0-8.5-0.1-12.7,0.5
			c-3.3,0.5-7.4,0.4-9.6,3.4c-2.4,3.3-2.8,8.4-3.6,12.3c-1,4.8-1.8,9.7-1.7,14.7c0.1,5.2,0.5,10.4-0.2,15.6c-0.6,4.5-1,9.1-0.5,13.6
			c0.5,4.7,0.5,9.5,1.2,14.1c0.6,3.8,0.8,8,3.3,11.1c1.1,1.3,2.6,2.2,3.7,3.5c1.3,1.6,1.3,3.9,1.4,5.9c0.1,3.9,0.6,7.6,0.9,11.5
			c0.3,4.7,1.3,9.7,0.6,14.5c-0.6,4.2-0.2,8.6,0.5,12.8c0.9,5,0.4,10.1,0.8,15.1c0.4,4.8,0.4,9.6,0.3,14.4c0,0.9,0,1.6,0.2,2.4
			c0.3,1.2,0.4,1-0.6,1.5c-1.3,0.6-3,0.8-4.3,1.5c-2.6,1.4-3.7,3.9-2.8,6.8c1,3.1,5.4,4,8.2,5c9.3,3.5,19.1,0.8,28.6,0.5
			c5-0.2,10.1-1.3,15-1.9c2.3-0.3,4.7-0.5,7-0.8c2.5-0.3,4.9-1.4,7.5-1.4c3.4,0,7.4-0.1,9.7-3c2-2.6,0.9-5.5-1.7-7
			c-1.2-0.7-2.7-1-3.9-1.8c-1.7-1-1.3-2.4-1.1-4.3c0.5-4.9,0-9.8,0.1-14.6c0.1-4.9,0.7-9.7,0.7-14.6c-0.1-4.9-0.3-9.9,0.3-14.7
			c0.6-4.8-0.1-9.5,0.4-14.2c0.2-2,0.7-3.9,0.6-5.9c0-1.4-0.3-2.8,0.3-4c0.5-0.9,1.5-1.4,2.3-2c2.6-2.1,4-5.4,4-8.7
			c0-2.3,0.5-4.5,0.6-6.8C29.5,1036.1,29,1033.8,28.7,1031.5z"/>
		<path style="fill:#8FD2E7;" d="M16.3,996.7c-0.3-4.6,2-12.9-4.1-14.6c-3.1-0.9-6.9-0.5-10.2-0.9c-2.3-0.2-4.7-0.6-7-0.8
			c-2.6-0.3-5.2,0.1-7.8-0.3c-4.1-0.6-8.3-1.5-12.5-1.9c-2.1-0.2-4.2,0-6.4,0c-1.9,0-3.5-0.3-5.3-0.5c-0.2-0.1-0.4-0.1-0.6-0.1
			c-0.1,0-0.3,0-0.4,0c-1.8-0.1-2.3,1.7-1.7,2.9c-1.1,2-0.6,4.5-0.5,6.7c0.1,4.4-0.3,8.6-0.7,12.9c-0.4,4-0.5,8-0.6,12
			c-0.1,3.9-0.4,7.7,0.3,11.6c0.5,2.6,0.6,6.8,2.5,8.8c2,2.2,6.9,2,9.6,2.4c4,0.5,8.1,1,12.1,1.3c4.5,0.3,9,0.1,13.4,0.8
			c3.2,0.5,6.3,0.8,9.5,1c2.4,0.2,5.2,0.5,7-1.4c1.6-1.6,2-4.3,2.4-6.4c0.5-3.4,1.2-6.8,1.4-10.3
			C17.2,1012.3,16.8,1004.5,16.3,996.7z"/>
	</g>
	<g>
		<path style="fill:#76ADDE;" d="M685.7,998.2c-0.2-3.5-1.3-6.8-1.4-10.3c-0.1-3.9,0.1-7.7,0.1-11.6c0-4.2-0.7-8.4-0.8-12.6
			c-0.2-4,0.2-8.1,0.2-12.1c0-4,0-8-0.1-12.1c-0.1-4,0.8-7.8,0.9-11.8c0.1-4.4-0.2-8.7-0.1-13.1c0.1-3.9-0.6-7-1.3-10.8
			c-0.5-3-0.8-5.2-3.5-7.2c-2.1-1.6-4.4-1.2-6.7-1.1c-0.2-2.2,0.2-4.4,0.2-6.5c0-2.8-0.4-5.7-1.6-8.3c-0.8-1.8-2.3-3.4-3.6-4.9
			c-1.5-1.8-3.4-2.6-5.7-3.1c-5.3-1-11.2-0.6-16.6-0.4c-2.7,0.1-5.4,0.6-8,0.9c-2.6,0.3-5.2,0.6-7.6,1.4c-4.4,1.3-9.3,1.1-12.4,5.1
			c-1.3,1.7-2,3.8-2.3,5.9c-0.5,2.7-1,5.5-1.2,8.3c-0.1,1.2,0.1,1.5-0.9,1.8c-0.6,0.2-2.1,0.1-2.8,0c-1.2-0.3-1.2-0.9-1.9-1.9
			c-0.8-1.3-1.9-2.4-2.9-3.5c-3.6-3.7-5.4-7.1-11-7.7c-6.2-0.7-12.6-3.1-18.9-2.3c-2.7,0.3-5.6,1.2-8.1,2.5c-0.9,0.5-2,0.9-2.8,1.5
			c-1,0.7-1.6,1.8-2.5,2.7c-0.1,0.1-0.1,0.1-0.2,0.2c-0.3,0.1-0.5,0.2-0.8,0.4c-2.3,2-4.6,3.7-6.5,6.1c-2,2.4-2.6,4.7-2.8,7.8
			c-0.7,7.7-1.5,15.4-2,23.1c-0.5,7.7-0.4,15.4-0.5,23.1c0,7.7,0.7,15.1,1.3,22.8c0.3,3.9,0.4,7.8,0.7,11.6c0.3,3.7,1,7.3,1.3,11
			c0.5,7,0.7,14.2,1.6,21.2c0.9,6.5,0,13.4,2.1,19.6c0.7,2.2,1.5,4.1,3.3,5.6c2.4,2,5.8,2.4,8.7,3.1c7,1.6,14.1,1.4,21.3,1.3
			c7.2-0.2,14.2,0.1,21.3-1.4c7.8-1.6,15.4-2.5,23.3-2.6c3.8-0.1,7.6,0.1,11.4-0.1c3.7-0.2,7.2-1,10.8-1.6c3.3-0.5,6.7-0.3,10-0.8
			c3.4-0.5,6.7-1.7,9.9-3c6-2.6,7.2-8.1,7.9-14c0.4-3.4,0.4-6.7,0.5-10.1C685.3,1006.1,686,1002.1,685.7,998.2z M627.1,883.5
			c3.7-2.4,7.6-2.5,11.7-2.5c4.6,0,9-1.4,13.7-1.2c1.3,0.1,2.2,0,3.4-0.4c0.5-0.2,1-0.4,1.5-0.5c1.6,0,2.8,1.4,3.7,2.7
			c1.4,2.1,2.7,5.8,2.5,8.8c-0.3,0.1-0.5,0.1-0.8,0.2c-2.3,0.4-4.7,0.6-7,0.9c-3.8,0.5-7.7,0.7-11.5,1.3c-4.5,0.7-9,0.4-13.5,0.7
			c-2.6,0.2-5.6,0.2-8,1.5c-0.1-0.2-0.1-0.4-0.1-0.6C622.8,889.9,623.4,885.9,627.1,883.5z"/>
		<path style="fill:#8FD2E7;" d="M671.5,993.2c0.1-3.4,0.4-6.7,0.4-10.1c-0.2-13-1.5-26-2.6-39c-0.5-6.3-0.2-12.8-1.3-19
			c-0.3-1.9-0.4-4.7-1.9-6.2c-0.1-0.2-0.3-0.3-0.5-0.4c-1.9-2.6-6.6-2.6-9.5-2.7c-5.6-0.3-11.3,0-16.9,0c-2.8,0-5.6-0.3-8.5-0.4
			c-2.6-0.1-5.1,0.3-7.7,0.4c-5.5,0.2-10.9,0.4-16.4,0.1c-5.8-0.3-11.7,0.3-17.6-0.4c-4.9-0.6-10.1,0.6-15.1,0.7
			c-2.7,0-7.3-0.4-6.8,3.6c0,0.1,0,0.2,0,0.3c-0.1,0.2-0.1,0.4-0.1,0.6c0,6.8,0.3,13.7,0.1,20.5c-0.2,6.8-0.4,13.5,0.3,20.3
			c0.3,3.1,0.7,6.1,1,9.2c0.3,3.5,0,7,0.3,10.5c0.5,6.4,0.4,12.8,0.9,19.1c0.4,4.9,1.5,10.9,4.9,14.7c1.3,1.5,3.1,2,5,2.2
			c3.1,0.4,6.2,0.6,9.3,1.4c6.3,1.6,12.3,3.7,18.9,4.1c6.4,0.5,13.2,0.5,19.5-0.3c12.6-1.7,25-4,36.9-8.7c2.2-0.9,4.5-1.6,5.7-3.8
			c1.3-2.1,1.3-4.7,1.4-7.1C671.7,999.7,671.5,996.4,671.5,993.2z"/>
		<path style="fill:#E83B3F;" d="M598.4,875.5c-2.1-4.2-5.9-3.1-9.8-3.2c-5.2,0-10.4,0.2-15.6,0.8c-3.8,0.4-8.6,0.6-11.9,2.9
			c-3.7,2.6-2.3,7-2.2,11c0,0.8,0.4,1.4,0.9,1.7c0.4,0.4,1,0.7,1.4,0.7c3.6-0.1,7.4-0.3,11.1-0.9c5.3-0.8,11-0.2,16.3-0.2
			c3.2,0,9.4,1.3,11.2-2.4C601.4,883.1,599.7,878.1,598.4,875.5z"/>
	</g>
	<g>
		<path style="fill:#9CC542;" d="M491.7,1001.7c-0.6-4.9-0.9-9.8-1.5-14.7c-0.7-5.5-0.6-11-1.2-16.5c-0.7-5.8-0.1-11.5-1-17.3
			c-0.3-1.8-0.9-3.6-1-5.5c-0.1-1.4,0.1-2.7,0-4.1c-0.1-1.6-0.6-3.1-0.8-4.7c-0.1-1.5-0.1-3-0.3-4.5c-0.1-0.5-0.1-1-0.2-1.4
			c0-0.6,0-1.1,0-1.7c0-7.5,1.3-15.7-3.1-22.2c-3.2-4.6-9-5.9-14.3-6.2c-3-0.2-6.2-0.4-9.2,0.1c-0.7,0.1-1.4,0.3-2.1,0.4
			c-0.2,0-0.4,0-0.5,0c-6.4,0-13-0.2-19.3,1.3c-4.9,1.2-10,4.1-12.4,8.7c-2.6,5.1-2.9,11.1-2.8,16.7c0,0.2,0,0.3,0.1,0.5
			c-0.2,5.2-0.1,10.4-0.1,15.6c0,6.5,0.2,12.9,0.1,19.4c-0.1,5.7-1.2,11.2-1.3,16.9c-0.1,5.4-1.6,10.9-0.9,16.3
			c0.5,3.9,0.6,8.3,2.9,11.6c2.7,3.9,8.6,4.6,12.9,5.3c5.9,1,11.8,1.5,17.8,1.4c6.1-0.1,12.3-0.1,18.4-0.8c2.9-0.3,5.7-0.8,8.6-1.2
			c2.4-0.4,4.9-0.4,6.9-2C491.1,1010.6,492.3,1006.1,491.7,1001.7z"/>
		<path style="fill:#76ADDE;" d="M465.7,887.4c0.1-3.2-0.9-6-2.2-8.8c-1-2.2-2.8-2.9-4.9-3.3c-2.3-1.6-5.4-1.2-8.2-1.2
			c-0.6,0-1.2-0.1-1.8-0.1c-1.3,0-2.7,0-3.9,0.4c-1.4,0.3-2.7,0.9-3.7,2.1c-2.4,2.9-1.3,8.3-1.2,11.9c0.1,2.3,0.3,4.8,0.6,7.1
			c0,0.3,0.3,1.3,0.6,2.3c0.2,1.4,0.3,2.8,0.5,4.2c-0.6,1-0.3,2.1,0.3,2.8c0.2,1,1,1.6,2.1,1.7c1.8,0.2,3.6-0.7,5.4-1
			c1.3-0.2,2.5,0,3.9,0c1.4,0,2.5-0.5,3.9-0.6c2.8-0.4,6.5,0.1,8.1-3c0.5-0.9,0.5-1.9,0.4-2.8C465.5,895.1,465.6,891.3,465.7,887.4z
			"/>
		<path style="fill:#4CB79C;" d="M473.5,982c0-2.3-0.2-4.5-0.3-6.8c0-1.9,0.4-3.7,0.3-5.6c-0.1-2.2-0.8-4.3-0.8-6.5
			c0-2.2,0.1-4.4,0.1-6.7c0-2.3-0.6-4.4-0.6-6.6c0-1.9,0.6-3.9,0.7-5.7c0.2-2,0.6-4,0.5-6c0-1.5-0.5-2.9-0.6-4.4
			c-0.2-1.7,0.2-2.9-0.5-4.5c-0.3-0.6-1.2-1.1-1.9-1.1c-2,0.1-3.9,0.7-5.8,1c-2.6,0.5-4.4-0.6-6.8-0.9c-4.8-0.7-9.8-0.7-14.7-0.7
			c-1,0-1.7,0.6-2,1.4c-0.9,0.2-1.6,0.8-1.4,2c0.6,4.9,0.5,9.8,0.8,14.7c0.3,5.1,0.7,10.3,1,15.4c0.2,4.7-0.1,9.5-0.1,14.2
			c0,4.6,0.9,9.3,1.4,13.9c0.1,0.9,0.6,1.9,1.6,2.1c3.2,0.7,6.5-1,9.7-1.1c4.2-0.1,8.5,0.5,12.7,0.2c2.4-0.2,5.4-0.4,6.3-2.9
			C473.8,985.7,473.5,983.7,473.5,982z"/>
	</g>
	<g>
		<path style="fill:#B37057;" d="M889.6,908c-0.8-3.6-1.1-8.5-5.6-9.1c-8.7-1.2-9.4,12.3-9.9,17.9c-1,11.7-1.4,68.9-2.3,80.6
			c-0.5,6,0.1,12.2,0.2,18.3c0.1,6.1-0.8,12.2-0.7,18.3c0.1,7.1,0.4,14.3-0.4,21.4c-0.4,3.5-0.9,7-1.1,10.5c-0.1,3.6,0.5,7,0.7,10.6
			c0.4,6.7,0.6,13.5,0.9,20.2c0.2,3.5,0.5,7,0.5,10.5c0,1.5-0.1,3.1,0,4.6c0.1,1.8,0.7,3.6,0.7,5.4c0,1.5,1.2,2.3,2.4,2.4
			c0.3,0.9,1.1,1.5,2.3,1.5c2.5,0,5.2-0.4,7.7-0.9c1.2-0.3,1.7-1.3,1.8-2.4c0.3-2.8-0.7-5.1-1.1-7.8c-0.5-3.1-0.2-6.3-0.2-9.4
			c0-3.2-0.1-6.3,0-9.5c0.1-3.1,0.8-6.1,1.3-9.2c0.8-5.5,1-11.1,1.6-16.5c0.3-2.8-0.1-5.6,0.3-8.4c0.5-3.1,0.5-6.1,0.5-9.2
			c-0.1-6.2,0.8-12.3,0.9-18.5c0-6.4-0.2-12.8-0.3-19.2c-0.1-6.5,0.8-12.9,0.8-19.4c0-6.4,0-12.8,0-19.3
			C890.5,965.3,890.9,913.8,889.6,908z"/>
	</g>
	<g>
		<path style="fill:#E83B3F;" d="M788.6,926.5c-0.4-2.5,0.7-6.1-1.4-8.2c-0.5-0.5-2-0.7-2.3-1c-0.1-0.2,0-1.9-0.2-2.4
			c-0.7-1.8-2.3-2.1-3.9-2.2c-0.3-2-0.7-4.1-2.7-5.1c-1.2-0.5-3.1-0.2-3.3,1.4c-0.3,1.7-0.1,3.3,0.1,4.9c-1.7,0.1-3.6,0.2-4.8,1.5
			c-0.8,0.9-0.9,1.9-0.7,2.8c-1.8,0.2-3.6,0.7-4.8,2.1c-1.6,1.9-0.7,5.6-0.7,7.8c0,1.3,0.9,2,1.9,2.2c0,0.2,0.1,0.3,0.1,0.4
			c0.6,2.3,2.3,2.6,4.4,2.6c3.3,0,6.6,0.2,9.9-0.1c1.6-0.1,3-0.4,4.6-0.4c1,0,2.1,0,2.9-0.6C789.6,930.9,788.9,928.3,788.6,926.5z"
			/>
		<path style="fill:#4CB79C;" d="M811.4,1037.3c-0.3-2.8,0.1-5.6,0-8.4c-0.2-5.9-1-11.7-2.1-17.5c-0.5-2.8-0.8-5.5-1.1-8.3
			c-0.3-3-1.5-6-1.3-9c0.1-2.4,1.2-4.4,2-6.6c1-2.6,1.9-5.3,3-7.9c2.3-5.4,4.6-11,3.9-17c-0.6-4.9-3.3-10-6.7-13.5
			c-3.7-3.8-9.5-3.7-13.3-7.3c-2.2-2.1-3.2-4.5-3.9-7.3c-0.6-2.4,0-4.9-1.1-7.2c-0.4-0.9-1.7-1.2-2.6-1c-1.9,0.4-3.5,0.9-5.5,0.9
			c-2.2,0-4.4,0-6.6,0c-3.9,0-7.7-0.5-11.5,0.1c-0.7,0.1-1.4,0.9-1.6,1.6c-0.9,3.8,1.8,9.6-1.4,12.4c-3.3,2.9-7.6,4.6-11,7.3
			c-2.9,2.3-4.6,5.6-5.6,9.1c-0.5,1.9-0.7,3.8-0.8,5.7c-0.2,2.3-0.9,4.5-0.7,6.8c0.5,3.8,2.1,7.1,3.4,10.6c-0.1,0.2,0.4,5.4,0.8,7.7
			c0.6,3.2-0.2,6.8-0.3,10.1c-0.2,6.2-0.2,12.4-1.2,18.5c-0.9,5.4-1.6,10.8-2.1,16.2c-0.4,5.7,0,11.6,0,17.4c0,2.3,0.5,4.6,0.7,6.9
			c0.1,2.7,0.3,5.2,0.9,7.9c0.9,4.6,0.7,9.9,4.7,13c1.6,1.2,3,1.3,4.9,1.6c2.8,0.4,5.3,1.5,8.1,1.8c2.4,0.2,4.8,0.9,7.2,0.8
			c2.5-0.1,5-0.9,7.5-1.2c5.8-0.5,11.5-0.9,17.2-1.9c4.6-0.8,8.5-2.8,12.1-5.8c3.3-2.8,4.8-7,5.1-11.2c0.2-2.4,0.6-4.9,0.7-7.3
			c0-3.1-0.6-6.3-0.9-9.5C812.1,1043,811.6,1040.1,811.4,1037.3z"/>
		<path style="fill:#E83B3F;" d="M795.3,1012.3c-0.2-9.1-1.9-17.6-5-26.1c-1.2-3.4-2.5-6.4-4.7-9.2c-1.7-2.2-3.3-2.7-5.7-2.8
			c-0.5-0.3-1-0.6-1.5-0.8c-1.4-0.5-2.9-0.8-4.4-0.7c-3,0.2-5.7,2.3-7.5,4.6c-3.9,5-5.3,12.8-6.1,18.9c-1.1,8.4-1.8,16.8-1.8,25.3
			c0,7.5-0.2,15.1,1.8,22.4c1.6,5.9,4.8,9.9,10.8,11.5c5,1.3,11.2,1.9,15.5-1.3c5.4-4.1,6.7-10.4,7.8-16.7c0.7-3.9,1.4-7.7,1.4-11.6
			C796,1021.2,795.4,1016.8,795.3,1012.3z"/>
	</g>
	<g>
		<path style="fill:#4CB79C;" d="M1025,933.5c-1.2-3.8-7.1-5.4-10.5-4.5c-7.1,1.8-14.5,1.9-21.7,2.4c-3.3,0.2-10.6,1-11.4,5.3
			c-0.4,2.3,1.4,3.2,3,4.2c1.3,0.8,0.7-0.2,0.9,1.3c0.1,0.5,0,1.2,0,1.7c0,1.6,0.2,2.9,0.6,4.3c-2.7-0.1-5.7,0.1-7.5,2.4
			c-1.1,1.3-1.5,3.1-1.5,4.8c0.1,2.7,0.7,5.3,0.6,8.1c0,0,0,0,0,0c0,0.2,0,0.4,0,0.7c0,1.2,0,2.5,0.9,3.5c1.2,1.4,3.4,1.3,5.1,1.2
			c2.5,0,5-0.1,7.6-0.1c2.5,0,4.9,0.1,7.4,0.1c1.4,0,2.8-0.2,3.9-1.2c2-2,1-6.7,0.9-9.3c0-3-0.4-6.5-3.1-8.4c-0.9-0.6-1.9-1-2.9-1.3
			c0-0.1,0-0.2,0-0.3c0-1.5,0.2-3,0-4.5c0-0.2-0.5-1.3-0.5-1.7c0.1,0.2,1.8-0.2,1.7-0.2c3.2-0.5,6.5,0.1,9.7-0.4
			c3.1-0.4,6.2-1.4,9.3-2.2c2.7-0.8,5.2-1.8,7.1-3.9C1025,935,1025.3,934.2,1025,933.5z"/>
		<path style="fill:#9CC542;" d="M1028.7,1031.5c-0.4-2.6-0.7-5.2-0.6-7.9c0.1-2.2,0.6-4.3,0.7-6.5c0.1-2.1,0-4.3-0.1-6.5
			c-0.2-2.6-1.1-5-1.3-7.6c-0.3-4.1-0.3-8.2-1-12.2c-0.2-0.9-0.2-1.8-0.3-2.7c0.2-1.4,0.4-2.8,0.5-4.1c0.7-5.4-0.8-12.6-5.1-16.3
			c-2.2-1.9-5.3-2.8-8.2-2.3c-0.8,0.1-1.6,0.5-2.4,0.6c-1.1,0.1-2.1-0.3-3.2-0.5c-1.9-0.4-3.8-0.7-5.7-0.8c-2.3-0.1-4.6,0.2-6.9-0.2
			c-2.1-0.3-4.1-0.7-6.2-1.1c-2.2-0.4-4.4-0.9-6.6-1.2c-2.3-0.3-4.3,0.5-6.6,0.5c-0.6,0-1.1,0.3-1.5,0.6c-4.2,0-8.5-0.1-12.7,0.5
			c-3.3,0.5-7.4,0.4-9.6,3.4c-2.4,3.3-2.8,8.4-3.6,12.3c-1,4.8-1.8,9.7-1.7,14.7c0.1,5.2,0.5,10.4-0.2,15.6c-0.6,4.5-1,9.1-0.5,13.6
			c0.5,4.7,0.5,9.5,1.2,14.1c0.6,3.8,0.8,8,3.3,11.1c1.1,1.3,2.6,2.2,3.7,3.5c1.3,1.6,1.3,3.9,1.4,5.9c0.1,3.9,0.6,7.6,0.9,11.5
			c0.3,4.7,1.3,9.7,0.6,14.5c-0.6,4.2-0.2,8.6,0.5,12.8c0.9,5,0.4,10.1,0.8,15.1c0.4,4.8,0.4,9.6,0.3,14.4c0,0.9,0,1.6,0.2,2.4
			c0.3,1.2,0.4,1-0.6,1.5c-1.3,0.6-3,0.8-4.3,1.5c-2.6,1.4-3.7,3.9-2.8,6.8c1,3.1,5.4,4,8.2,5c9.3,3.5,19.1,0.8,28.6,0.5
			c5-0.2,10.1-1.3,15-1.9c2.3-0.3,4.7-0.5,7-0.8c2.5-0.3,4.9-1.4,7.5-1.4c3.4,0,7.4-0.1,9.7-3c2-2.6,0.9-5.5-1.7-7
			c-1.2-0.7-2.7-1-3.9-1.8c-1.7-1-1.3-2.4-1.1-4.3c0.5-4.9,0-9.8,0.1-14.6c0.1-4.9,0.7-9.7,0.7-14.6c-0.1-4.9-0.3-9.9,0.3-14.7
			c0.6-4.8-0.1-9.5,0.4-14.2c0.2-2,0.7-3.9,0.6-5.9c0-1.4-0.3-2.8,0.3-4c0.5-0.9,1.5-1.4,2.3-2c2.6-2.1,4-5.4,4-8.7
			c0-2.3,0.5-4.5,0.6-6.8C1029.5,1036.1,1029,1033.8,1028.7,1031.5z"/>
		<path style="fill:#8FD2E7;" d="M1016.3,996.7c-0.3-4.6,2-12.9-4.1-14.6c-3.1-0.9-6.9-0.5-10.2-0.9c-2.3-0.2-4.7-0.6-7-0.8
			c-2.6-0.3-5.2,0.1-7.8-0.3c-4.1-0.6-8.3-1.5-12.5-1.9c-2.1-0.2-4.2,0-6.4,0c-1.9,0-3.5-0.3-5.3-0.5c-0.2-0.1-0.4-0.1-0.6-0.1
			c-0.1,0-0.3,0-0.4,0c-1.8-0.1-2.3,1.7-1.7,2.9c-1.1,2-0.6,4.5-0.5,6.7c0.1,4.4-0.3,8.6-0.7,12.9c-0.4,4-0.5,8-0.6,12
			c-0.1,3.9-0.4,7.7,0.3,11.6c0.5,2.6,0.6,6.8,2.5,8.8c2,2.2,6.9,2,9.6,2.4c4,0.5,8.1,1,12.1,1.3c4.5,0.3,9,0.1,13.4,0.8
			c3.2,0.5,6.3,0.8,9.5,1c2.4,0.2,5.2,0.5,7-1.4c1.6-1.6,2-4.3,2.4-6.4c0.5-3.4,1.2-6.8,1.4-10.3
			C1017.2,1012.3,1016.8,1004.5,1016.3,996.7z"/>
	</g>
	<g>
		<path style="fill:#9CC542;" d="M18.8,844.8c-0.6-4.9-0.9-9.8-1.5-14.7c-0.7-5.5-0.6-11-1.2-16.5c-0.7-5.8-0.1-11.5-1-17.3
			c-0.3-1.8-0.9-3.6-1-5.5c-0.1-1.4,0.1-2.7,0-4.1c-0.1-1.6-0.6-3.1-0.8-4.7c-0.1-1.5-0.1-3-0.3-4.5c-0.1-0.5-0.1-1-0.2-1.4
			c0-0.6,0-1.1,0-1.7c0-7.5,1.3-15.7-3.1-22.2c-3.2-4.6-9-5.9-14.3-6.2c-3-0.2-6.2-0.4-9.2,0.1c-0.7,0.1-1.4,0.3-2.1,0.4
			c-0.2,0-0.4,0-0.5,0c-6.4,0-13-0.2-19.3,1.3c-4.9,1.2-10,4.1-12.4,8.7c-2.6,5.1-2.9,11.1-2.8,16.7c0,0.2,0,0.3,0.1,0.5
			c-0.2,5.2-0.1,10.4-0.1,15.6c0,6.5,0.2,12.9,0.1,19.4c-0.1,5.7-1.2,11.2-1.3,16.9c-0.1,5.4-1.6,10.9-0.9,16.3
			c0.5,3.9,0.6,8.3,2.9,11.6c2.7,3.9,8.6,4.6,12.9,5.3c5.9,1,11.8,1.5,17.8,1.4c6.1-0.1,12.3-0.1,18.4-0.8c2.9-0.3,5.7-0.8,8.6-1.2
			c2.4-0.4,4.9-0.4,6.9-2C18.2,853.6,19.3,849.2,18.8,844.8z"/>
		<path style="fill:#4CB79C;" d="M0.5,825.1c0-2.3-0.2-4.5-0.3-6.8c0-1.9,0.4-3.7,0.3-5.6c-0.1-2.2-0.8-4.3-0.8-6.5
			c0-2.2,0.1-4.4,0.1-6.7c0-2.3-0.6-4.4-0.6-6.6c0-1.9,0.6-3.9,0.7-5.7c0.2-2,0.6-4,0.5-6c0-1.5-0.5-2.9-0.6-4.4
			c-0.2-1.7,0.2-2.9-0.5-4.5c-0.3-0.6-1.2-1.1-1.9-1.1c-2,0.1-3.9,0.7-5.8,1c-2.6,0.5-4.4-0.6-6.8-0.9c-4.8-0.7-9.8-0.7-14.7-0.7
			c-1,0-1.7,0.6-2,1.4c-0.9,0.2-1.6,0.8-1.4,2c0.6,4.9,0.5,9.8,0.8,14.7c0.3,5.1,0.7,10.3,1,15.4c0.2,4.7-0.1,9.5-0.1,14.2
			c0,4.6,0.9,9.3,1.4,13.9c0.1,0.9,0.6,1.9,1.6,2.1c3.2,0.7,6.5-1,9.7-1.1c4.2-0.1,8.5,0.5,12.7,0.2c2.4-0.2,5.4-0.4,6.3-2.9
			C0.9,828.8,0.6,826.7,0.5,825.1z"/>
	</g>
	<g>
		<path style="fill:#E8A26E;" d="M141.5,816.2c-0.1-1.6-0.6-3.1-0.7-4.6c-0.1-2,0-4.1-0.2-6.1c-0.4-3.7-0.2-7.1-0.3-10.8
			c0-1.4-0.3-2.6-0.6-4c-0.4-2-0.1-3.9-0.3-5.9c-0.5-7.3-1.6-14.7-2.4-22c-0.8-7-0.3-14.1-1.5-21c-0.8-4.1-1.1-8.2-1.7-12.3
			c-0.6-3.5-0.2-7.2-0.9-10.6c-0.6-3.1-0.9-6.1-1.8-9.2c-0.9-3.1-2.5-4.5-5.4-5.8c-3.2-1.5-6.4-3.2-9.9-4c-3.6-0.9-7.4-1-11.1-1
			c-1.9,0-3.9-0.2-5.8,0.1c-2,0.2-3.6,1.1-5.5,1.7c-2.5,0.8-6.5,0.4-8.3,2.6c-0.1,0.2-0.2,0.3-0.3,0.5c-5-0.6-10.8,0.5-15.1,2.7
			c-4.7,2.5-7.4,7.3-9.3,12.1c-4.7,11.7-8.1,24.7-8.9,37.3c-0.5,7.8-1.3,15.7-2.4,23.4c-0.5,3.5-0.5,6.9-0.9,10.4
			c-0.3,3.6-1,7.3-1,11c0,4.8-1.8,10.1-0.3,14.8c1.4,4.4,7,7.2,11.3,7.9c3.5,0.6,7.1,0.1,10.5,0.5c3.8,0.4,7.4,1,11.2,1.1
			c3.6,0,7.1,0.5,10.7,0.7c4,0.2,8.1,0,12.1,0c6.7,0.1,13.6-0.2,20.2-0.9c3.2-0.3,6.4-1,9.6-1.2c2.2-0.2,4.7-0.5,6.5-1.7
			C140.9,820.3,141.6,818.4,141.5,816.2z"/>
		<path style="fill:#B37057;" d="M108.4,470.6c-0.8-3.6-1.1-8.5-5.6-9.1c-8.7-1.2-9.4,12.3-9.9,17.9c-1,11.7-1.4,68.9-2.3,80.6
			c-0.5,6,0.1,12.2,0.2,18.3c0.1,6.1-0.8,12.2-0.7,18.3c0.1,7.1,0.4,14.3-0.4,21.4c-0.4,3.5-0.9,7-1.1,10.5c-0.1,3.6,0.5,7,0.7,10.6
			c0.4,6.7,0.6,13.5,0.9,20.2c0.2,3.5,0.5,7,0.5,10.5c0,1.5-0.1,3.1,0,4.6c0.1,1.8,0.7,3.6,0.7,5.4c0,1.5,1.2,2.3,2.4,2.4
			c0.3,0.9,1.1,1.5,2.3,1.5c2.5,0,5.2-0.4,7.7-0.9c1.2-0.3,1.7-1.3,1.8-2.4c0.3-2.8-0.7-5.1-1.1-7.8c-0.5-3.1-0.2-6.3-0.2-9.4
			c0-3.2-0.1-6.3,0-9.5c0.1-3.1,0.8-6.1,1.3-9.2c0.8-5.5,1-11.1,1.6-16.5c0.3-2.8-0.1-5.6,0.3-8.4c0.5-3.1,0.5-6.1,0.5-9.2
			c-0.1-6.2,0.8-12.3,0.9-18.5c0-6.4-0.2-12.8-0.3-19.2c-0.1-6.5,0.8-12.9,0.8-19.4c0-6.4,0-12.8,0-19.3
			C109.4,528,109.7,476.5,108.4,470.6z"/>
		<path style="fill:#C57F68;" d="M121,691.6c-0.7-3.7-1.9-9.2-4.8-11.9c-1.2-1.1-2.8-1.7-4.4-1.8c-2.5-0.2-4.6-1.1-7.1-1.4
			c-5.1-0.6-11.5-0.4-16.3,1.1c-4.3,1.4-8.1,3.5-9,8.3c-0.4,2.4,0,4.9-0.2,7.3c-0.2,3.6-0.7,7.2-0.7,10.8c0,1.1,0.6,1.8,1.3,2.2
			c0.9,1.3,2.5,2,4.4,2.3c5.1,0.8,10.9,0.4,16.1,0.1c2.8-0.1,5.5-0.6,8.3-0.9c2.5-0.2,4.8-0.2,7.3-0.2c3.5,0,5.2-1.9,5.7-5.2
			C122.1,698.9,121.7,695.1,121,691.6z"/>
		<path style="fill:#FAC494;" d="M68.1,779.4c-0.4-1.8-2.9-2.5-4.2-1.1c-4.2,4.8-5.3,12.4-6.4,18.4c-1.3,7-3.3,14.1-3.5,21.3
			c-0.1,0.4-0.2,0.9-0.1,1.3c0.2,2.8,3,3,5,3.6c2.4,0.8,5.1,2.1,7.4,0.3c2-1.5,2.1-4.2,2.1-6.5c0-3.7,0.6-7.3,0.6-11.1
			C69.1,797.2,70.2,787.8,68.1,779.4z"/>
		<path style="fill:#FAC494;" d="M92.5,813.6c0-2.1,0.3-4.2,0.2-6.3c-0.2-2.2-0.6-4.4-0.7-6.6c-0.2-4-0.5-7.9-1.2-11.9
			c-0.6-3.7-0.7-7.9-2.6-11.2c-1.1-1.8-4-1.5-4.6,0.6c-0.9,3.4-1.6,6.9-1.7,10.4c0,4-0.6,7.9-0.8,11.9c-0.1,4-0.2,7.9-0.7,11.9
			c-0.3,1.9-0.2,3.9-0.4,5.8c-0.2,1.9-0.9,3.5-0.9,5.4c0,2,2,2.8,3.5,2.2c2,1.8,5.9,1.5,8.9,0.8c0.8-0.2,1.6-0.9,1.7-1.7
			C93.8,821,92.5,817.5,92.5,813.6z"/>
		<path style="fill:#FAC494;" d="M116.3,817c-0.2-2.4-0.5-5-1-7.3c-1.3-6-1.7-12.5-2.9-18.6c-0.8-4.2-0.9-10.2-4.4-13.2
			c-1.3-1.1-2.9-0.8-3.9,0.5c-1.3,1.7-0.9,4.5-0.7,6.4c0.2,3.5,0.1,7,0.1,10.5v27.6c0,1.5,1.1,2.3,2.3,2.4c3.1,0.7,9,2.3,10.5-1.7
			C116.8,821.8,116.4,818.8,116.3,817z"/>
		<path style="fill:#FAC494;" d="M135,814.1c-0.7-4.4-1.2-8.8-1.7-13.2c-1-7.4-2.5-15.8-5.7-22.6c-0.7-1.5-2.9-1.6-3.9-0.5
			c-2.4,2.5-1.3,5.2-1,8.3c0.4,4.2,0.3,8.3,0.7,12.5c0.4,4,0.2,8,0.1,12c-0.1,2.1,0.1,4.2,0,6.2c0,2.1-0.8,4-0.8,6.1
			c0,2.5,2.9,3,4.3,1.7c2.7,0.5,6.5-0.8,7.8-2.6C136.4,819.8,135.4,816.6,135,814.1z"/>
	</g>
	<g>
		<path style="fill:#E83B3F;" d="M10.2,480.9c-0.4-2.5,0.7-6.1-1.4-8.2c-0.5-0.5-2-0.7-2.3-1c-0.1-0.2,0-1.9-0.2-2.4
			c-0.7-1.8-2.3-2.1-3.9-2.2c-0.3-2-0.7-4.1-2.7-5.1c-1.2-0.5-3.1-0.2-3.3,1.4c-0.3,1.7-0.1,3.3,0.1,4.9c-1.7,0.1-3.6,0.2-4.8,1.5
			c-0.8,0.9-0.9,1.9-0.7,2.8c-1.8,0.2-3.6,0.7-4.8,2.1c-1.6,1.9-0.7,5.6-0.7,7.8c0,1.3,0.9,2,1.9,2.2c0,0.2,0.1,0.3,0.1,0.4
			c0.6,2.3,2.3,2.6,4.4,2.6c3.3,0,6.6,0.2,9.9-0.1c1.6-0.1,3-0.4,4.6-0.4c1,0,2.1,0,2.9-0.6C11.3,485.3,10.5,482.7,10.2,480.9z"/>
		<path style="fill:#4CB79C;" d="M33,591.6c-0.3-2.8,0.1-5.6,0-8.4c-0.2-5.9-1-11.7-2.1-17.5c-0.5-2.8-0.8-5.5-1.1-8.3
			c-0.3-3-1.5-6-1.3-9c0.1-2.4,1.2-4.4,2-6.6c1-2.6,1.9-5.3,3-7.9c2.3-5.4,4.6-11,3.9-17c-0.6-4.9-3.3-10-6.7-13.5
			c-3.7-3.8-9.5-3.7-13.3-7.3c-2.2-2.1-3.2-4.5-3.9-7.3c-0.6-2.4,0-4.9-1.1-7.2c-0.4-0.9-1.7-1.2-2.6-1c-1.9,0.4-3.5,0.9-5.5,0.9
			c-2.2,0-4.4,0-6.6,0c-3.9,0-7.7-0.5-11.5,0.1c-0.7,0.1-1.4,0.9-1.6,1.6c-0.9,3.8,1.8,9.6-1.4,12.4c-3.3,2.9-7.6,4.6-11,7.3
			c-2.9,2.3-4.6,5.6-5.6,9.1c-0.5,1.9-0.7,3.8-0.8,5.7c-0.2,2.3-0.9,4.5-0.7,6.8c0.5,3.8,2.1,7.1,3.4,10.6c-0.1,0.2,0.4,5.4,0.8,7.7
			c0.6,3.2-0.2,6.8-0.3,10.1c-0.2,6.2-0.2,12.4-1.2,18.5c-0.9,5.4-1.6,10.8-2.1,16.2c-0.4,5.7,0,11.6,0,17.4c0,2.3,0.5,4.6,0.7,6.9
			c0.1,2.7,0.3,5.2,0.9,7.9c0.9,4.6,0.7,9.9,4.7,13c1.6,1.2,3,1.3,4.9,1.6c2.8,0.4,5.3,1.5,8.1,1.8c2.4,0.2,4.8,0.9,7.2,0.8
			c2.5-0.1,5-0.9,7.5-1.2c5.8-0.5,11.5-0.9,17.2-1.9c4.6-0.8,8.5-2.8,12.1-5.8c3.3-2.8,4.8-7,5.1-11.2c0.2-2.4,0.6-4.9,0.7-7.3
			c0-3.1-0.6-6.3-0.9-9.5C33.8,597.4,33.3,594.5,33,591.6z"/>
		<path style="fill:#E83B3F;" d="M17,566.7c-0.2-9.1-1.9-17.6-5-26.1c-1.2-3.4-2.5-6.4-4.7-9.2c-1.7-2.2-3.3-2.7-5.7-2.8
			c-0.5-0.3-1-0.6-1.5-0.8c-1.4-0.5-2.9-0.8-4.4-0.7c-3,0.2-5.7,2.3-7.5,4.6c-3.9,5-5.3,12.8-6.1,18.9c-1.1,8.4-1.8,16.8-1.8,25.3
			c0,7.5-0.2,15.1,1.8,22.4c1.6,5.9,4.8,9.9,10.8,11.5c5,1.3,11.2,1.9,15.5-1.3c5.4-4.1,6.7-10.4,7.8-16.7c0.7-3.9,1.4-7.7,1.4-11.6
			C17.6,575.6,17,571.2,17,566.7z"/>
	</g>
	<g>
		<path style="fill:#E83B3F;" d="M240.1,494.2c-0.5-2.9-1.1-5.8-1.4-8.6c-0.3-2.4,0.1-4.8-0.3-7.2c-0.1-0.7-0.9-1.5-1.6-1.6
			c-2-0.5-4.1-0.5-6.1-0.1c-1.1,0.2-2,0.5-2.9,1c-1,0.5-2.1,1.7-3.2,2.1c-2.1,0.6-2,3.2-0.6,4.2c0.4,6.4,2.9,13.1,6.4,18.3
			c1.8,2.7,3.6,5.5,5.6,8.1c1.2,1.5,2.7,3.4,4.8,3.2c1.2-0.2,2.4-0.9,2.3-2.3C242.8,505.5,241.1,499.7,240.1,494.2z"/>
		<path style="fill:#E83B3F;" d="M244.1,634.7c-0.7-7.7-1.1-15.4-2.1-23c-0.6-4.1-1.3-8.3-1.2-12.4c0.1-4.3-0.4-8.4-0.5-12.7
			c-0.2-7.1-2.3-13.4-6.7-19.1c-2.1-2.6-4.4-5-7.1-7c-2.9-2.2-7.2-3.4-9.5-6.2c-1.5-1.9-0.8-2.6,1-3.8c1-0.6,1.7-1.6,2.1-2.7
			c1.4-3.4,0.3-6.4-0.9-9.6c-0.9-2.4-1.6-4.3,0.8-5.9c1.3-0.8,2.5-1.2,3.3-2.5c2-2.9,1-5.5-1.1-7.8c-0.7-0.8-1.4-1.5-1.9-2.4
			c-0.9-1.6-0.8-1.5,0-2.6c1.1-1.4,1.9-1.8,2.2-3.8c0.4-2.8-1-7.2-3-9.2c-2.3-2.4-6.3-1.7-9.2-1.6c-3.7,0.2-7.2-0.5-10.8,0
			c-2.6,0.4-5.8,0.2-7.3,2.9c-0.6,1-0.6,2.1-0.5,3.2c-0.3,4.3-2,8.2-2.9,12.4c-0.9,4.3-1.7,8.7-2.8,13c-1,3.9-2.4,7.6-3.7,11.4
			c-1.5,4.2-2.5,8.5-3.6,12.8c-2.2,8.3-3.8,16.5-4.9,25.1c-0.5,4.2-0.7,8.3-0.8,12.5c-0.1,4.4-0.9,8.5-0.4,12.9c0.4,4,0.1,8,0.4,12
			c0.4,4.4,0.4,8.6,0.5,13c0.1,3.8,0.7,7.4,0.7,11.2c0,4.4,0.2,8.8,0.8,13.3c0.4,2.9,0.7,6,2.1,8.7c1.5,2.9,4.2,4.5,7.2,5.6
			c7.4,2.8,15.1,3.3,22.9,3.6c3.6,0.2,7.5-0.8,11-1.8c4.1-1.1,8-2.3,12.2-3.2c6.8-1.4,10.7-5.1,12.3-11.9
			C244.7,651.2,244.8,643,244.1,634.7z"/>
		<path style="fill:#4CB79C;" d="M248.2,473.7c-2.1-5.2-11.2-4.7-15.6-4.7c-7.7,0-15.3,0.1-23,0c-3.3-0.1-6.3,0.1-9.5,0.8
			c-3.1,0.6-6.6,1.1-9.6,2.3c-5.1,2.1-8.4,8.5-10.9,13.1c-1.9,3.4-7.1,10-4.7,14.2c1.3,2.3,4.6,2.5,6.9,2.5c2,0.1,3.9-0.4,5.8-0.5
			c1-0.1,2.9-0.3,4.3-0.2c0.1,1,0.2,2.1,0.2,2.9c0.1,1.6,1.6,2.4,2.8,2.2c0.3,0.7,1,1.2,2,1.1c3-0.2,6.2-0.3,9.2-0.6
			c2.2-0.2,5.6,0,7.5-1.5c1.7-1.4,2-4.1,3.2-6c1.9-2.9,4.3-5.4,6.5-8c5.1-6.1,12.1-7,19.5-7.7c1.8-0.2,4.3-0.5,5.2-2.2
			C249.3,479.5,249,475.7,248.2,473.7z"/>
		<path style="fill:#4CB79C;" d="M232,625.3c-0.5-4.6-0.8-9.3-1.4-13.9c-0.2-1.6-0.4-3.2-0.5-4.7c0.2-1.9,0.3-3.9,0.4-5.9
			c0.1-6-0.5-11.4-2.1-17.2c-1.2-4.4-3.3-8.6-6.9-11.4c-3.5-2.7-9.5-5.9-14-4.8c-0.3,0.1-0.5,0.2-0.7,0.3
			c-6.4,0.4-12.8,4.5-15.7,10.3c-3.6,7-4.4,14.9-5.2,22.6c-0.9,8.6-1.5,17.7-0.7,26.3c0.4,4.2,0.9,8.4,1.4,12.6
			c0.5,3.9,0.7,8.2,2,11.9c2.3,7,10,8,16.4,8c2.6,0,5.1,0.1,7.7,0.4c1.5,0.2,3,0.3,4.5,0c3.2-0.6,5.7-2.4,8.3-4.1
			c2.9-1.9,3.4-3.3,4.1-6.5c0.9-4.1,1.5-8.2,2.1-12.4C232.3,632.8,232.5,629.4,232,625.3z"/>
	</g>
	<g>
		<path style="fill:#E83B3F;" d="M323.5,757.8c-1.6-2.4-4-4.5-6.1-6.5c-2.2-1.9-5.2-3.7-7.7-1.3c-0.7,0.7-1.2,2-0.8,3
			c0.8,1.9,1.8,3.3,3.2,4.9c0.6,0.6,1,1.4,1.5,2c0.5,0.7,1.3,1.3,1.7,2.1c0.2,0.4,0.5,0.7,0.8,0.9c1.3,1.3,3.9,1.4,5-0.4
			c-0.2,0.3-0.2,0.2,0.5-0.1c0.3-0.1,0.6-0.3,0.9-0.5C323.8,761.1,324.5,759.1,323.5,757.8z"/>
		<path style="fill:#76ADDE;" d="M364.8,805.3c-0.8-7-2.5-15.4-7.7-20.5c-6-5.9-10.7-13.5-15.7-20.4c-3.5-4.7-9.3-11.3-15.9-10.8
			c-3.3,0.3-5.5,2.3-7.3,4.9c-1.9,2.7-4.6,5.7-5.8,8.8c-0.3,0.9-0.1,1.8,0.5,2.6c0.1,0.4,0.4,0.8,0.7,1.1c2.7,2.8,4.9,6.5,6.8,9.9
			c2.6,4.7,0.8,8.3-2.6,11.9c-5,5.3-11.4,9.1-15,15.6c-7.6,13.7-6.5,31.5-5.6,46.5c1,17.4,3.2,34.7,4.6,52.1c0.6,8,1.6,16,2.2,24
			c0.4,5.9,1.6,12.4,7.6,14.7c6.6,2.6,14.8,1.1,21.7,1.2c3.6,0,6.9-0.6,10.4-0.8c3.1-0.3,7,0.1,9.9-1.2c5.8-2.7,7.2-9.5,8-15.3
			c1.3-8.2,0.4-16.6,0.8-24.8c0.4-8,0.4-16,1.1-23.9c0.8-8.8-0.5-17.8,0.1-26.7c0.3-3.9,1-7.8,1.3-11.8c0.3-4.7,0.1-9.4,0.1-14
			c0-4.1,0.3-8,0.6-12.1C365.9,812.7,365.2,808.8,364.8,805.3z"/>
		<path style="fill:#9CC542;" d="M353.3,834c-0.3-6.9-2.1-13.3-8.9-16.1c-6.3-2.5-14.9-2.4-21.5-1.3c-7.1,1.2-14.1,1-16.4,8.4
			c-0.5,0.5-0.8,1.2-0.8,2.1c0,10.2,0.6,20.4,2.1,30.5c1.4,9.8,2.5,20.6,5.8,30c2.3,6.4,8.8,6.9,14.7,6.8c4-0.1,7.9-0.3,11.9-0.9
			c3.7-0.6,7.3-0.8,9.7-4c4.8-6.6,3.4-17,3.4-24.6C353.3,854.6,353.7,844.2,353.3,834z"/>
		<path style="fill:#E83B3F;" d="M339.4,764.4c-0.1,0-0.2,0.1-0.3,0.1c-0.9,0.3-1.8,1-2.1,1.9c-1.2,1.2-3.3,1.8-4.6,2.8
			c-1.8,1.3-3.3,2.9-5.2,4c-2.8,1.6-6.8,4-7.6,7.4c-0.8,3.8,5,5.4,5.9,1.6c0.3-1.2,2.5-2.4,3.4-3c1.9-1.2,3.7-2.1,5.4-3.6
			c2.2-1.9,5-3,7.1-5c0.6-0.3,1.1-0.8,1.3-1.6c0-0.1,0.1-0.1,0.1-0.2C344.2,766.7,342,763.4,339.4,764.4z"/>
	</g>
	<g>
		<path style="fill:#76ADDE;" d="M545.3,594.6c-0.2-3.5-1.3-6.8-1.4-10.3c-0.1-3.9,0.1-7.7,0.1-11.6c0-4.2-0.7-8.4-0.8-12.6
			c-0.2-4,0.2-8.1,0.2-12.1c0-4,0-8-0.1-12.1c-0.1-4,0.8-7.8,0.9-11.8c0.1-4.4-0.2-8.7-0.1-13.1c0.1-3.9-0.6-7-1.3-10.8
			c-0.5-3-0.8-5.2-3.5-7.2c-2.1-1.6-4.4-1.2-6.7-1.1c-0.2-2.2,0.2-4.4,0.2-6.5c0-2.8-0.4-5.7-1.6-8.3c-0.8-1.8-2.3-3.4-3.6-4.9
			c-1.5-1.8-3.4-2.6-5.7-3.1c-5.3-1-11.2-0.6-16.6-0.4c-2.7,0.1-5.4,0.6-8,0.9c-2.6,0.3-5.2,0.6-7.6,1.4c-4.4,1.3-9.3,1.1-12.4,5.1
			c-1.3,1.7-2,3.8-2.3,5.9c-0.5,2.7-1,5.5-1.2,8.3c-0.1,1.2,0.1,1.5-0.9,1.8c-0.6,0.2-2.1,0.1-2.8,0c-1.2-0.3-1.2-0.9-1.9-1.9
			c-0.8-1.3-1.9-2.4-2.9-3.5c-3.6-3.7-5.4-7.1-11-7.7c-6.2-0.7-12.6-3.1-18.9-2.3c-2.7,0.3-5.6,1.2-8.1,2.5c-0.9,0.5-2,0.9-2.8,1.5
			c-1,0.7-1.6,1.8-2.5,2.7c-0.1,0.1-0.1,0.1-0.2,0.2c-0.3,0.1-0.5,0.2-0.8,0.4c-2.3,2-4.6,3.7-6.5,6.1c-2,2.4-2.6,4.7-2.8,7.8
			c-0.7,7.7-1.5,15.4-2,23.1c-0.5,7.7-0.4,15.4-0.5,23.1c0,7.7,0.7,15.1,1.3,22.8c0.3,3.9,0.4,7.8,0.7,11.6c0.3,3.7,1,7.3,1.3,11
			c0.5,7,0.7,14.2,1.6,21.2c0.9,6.5,0,13.4,2.1,19.6c0.7,2.2,1.5,4.1,3.3,5.6c2.4,2,5.8,2.4,8.7,3.1c7,1.6,14.1,1.4,21.3,1.3
			c7.2-0.2,14.2,0.1,21.3-1.4c7.8-1.6,15.4-2.5,23.3-2.6c3.8-0.1,7.6,0.1,11.4-0.1c3.7-0.2,7.2-1,10.8-1.6c3.3-0.5,6.7-0.3,10-0.8
			c3.4-0.5,6.7-1.7,9.9-3c6-2.6,7.2-8.1,7.9-14c0.4-3.4,0.4-6.7,0.5-10.1C544.9,602.5,545.5,598.5,545.3,594.6z M486.7,479.9
			c3.7-2.4,7.6-2.5,11.7-2.5c4.6,0,9-1.4,13.7-1.2c1.3,0.1,2.2,0,3.4-0.4c0.5-0.2,1-0.4,1.5-0.5c1.6,0,2.8,1.4,3.7,2.7
			c1.4,2.1,2.7,5.8,2.5,8.8c-0.3,0.1-0.5,0.1-0.8,0.2c-2.3,0.4-4.7,0.6-7,0.9c-3.8,0.5-7.7,0.7-11.5,1.3c-4.5,0.7-9,0.4-13.5,0.7
			c-2.6,0.2-5.6,0.2-8,1.5c-0.1-0.2-0.1-0.4-0.1-0.6C482.4,486.3,483,482.3,486.7,479.9z"/>
		<path style="fill:#8FD2E7;" d="M531.1,589.6c0.1-3.4,0.4-6.7,0.4-10.1c-0.2-13-1.5-26-2.6-39c-0.5-6.3-0.2-12.8-1.3-19
			c-0.3-1.9-0.4-4.7-1.9-6.2c-0.1-0.2-0.3-0.3-0.5-0.4c-1.9-2.6-6.6-2.6-9.5-2.7c-5.6-0.3-11.3,0-16.9,0c-2.8,0-5.6-0.3-8.5-0.4
			c-2.6-0.1-5.1,0.3-7.7,0.4c-5.5,0.2-10.9,0.4-16.4,0.1c-5.8-0.3-11.7,0.3-17.6-0.4c-4.9-0.6-10.1,0.6-15.1,0.7
			c-2.7,0-7.3-0.4-6.8,3.6c0,0.1,0,0.2,0,0.3c-0.1,0.2-0.1,0.4-0.1,0.6c0,6.8,0.3,13.7,0.1,20.5c-0.2,6.8-0.4,13.5,0.3,20.3
			c0.3,3.1,0.7,6.1,1,9.2c0.3,3.5,0,7,0.3,10.5c0.5,6.4,0.4,12.8,0.9,19.1c0.4,4.9,1.5,10.9,4.9,14.7c1.3,1.5,3.1,2,5,2.2
			c3.1,0.4,6.2,0.6,9.3,1.4c6.3,1.6,12.3,3.7,18.9,4.1c6.4,0.5,13.2,0.5,19.5-0.3c12.6-1.7,25-4,36.9-8.7c2.2-0.9,4.5-1.6,5.7-3.8
			c1.3-2.1,1.3-4.7,1.4-7.1C531.3,596,531.1,592.8,531.1,589.6z"/>
		<path style="fill:#E83B3F;" d="M458,471.9c-2.1-4.2-5.9-3.1-9.8-3.2c-5.2,0-10.4,0.2-15.6,0.8c-3.8,0.4-8.6,0.6-11.9,2.9
			c-3.7,2.6-2.3,7-2.2,11c0,0.8,0.4,1.4,0.9,1.7c0.4,0.4,1,0.7,1.4,0.7c3.6-0.1,7.4-0.3,11.1-0.9c5.3-0.8,11-0.2,16.3-0.2
			c3.2,0,9.4,1.3,11.2-2.4C461,479.4,459.3,474.5,458,471.9z"/>
	</g>
	<g>
		<path style="fill:#9CC542;" d="M1018.8,844.8c-0.6-4.9-0.9-9.8-1.5-14.7c-0.7-5.5-0.6-11-1.2-16.5c-0.7-5.8-0.1-11.5-1-17.3
			c-0.3-1.8-0.9-3.6-1-5.5c-0.1-1.4,0.1-2.7,0-4.1c-0.1-1.6-0.6-3.1-0.8-4.7c-0.1-1.5-0.1-3-0.3-4.5c-0.1-0.5-0.1-1-0.2-1.4
			c0-0.6,0-1.1,0-1.7c0-7.5,1.3-15.7-3.1-22.2c-3.2-4.6-9-5.9-14.3-6.2c-3-0.2-6.2-0.4-9.2,0.1c-0.7,0.1-1.4,0.3-2.1,0.4
			c-0.2,0-0.4,0-0.5,0c-6.4,0-13-0.2-19.3,1.3c-4.9,1.2-10,4.1-12.4,8.7c-2.6,5.1-2.9,11.1-2.8,16.7c0,0.2,0,0.3,0.1,0.5
			c-0.2,5.2-0.1,10.4-0.1,15.6c0,6.5,0.2,12.9,0.1,19.4c-0.1,5.7-1.2,11.2-1.3,16.9c-0.1,5.4-1.6,10.9-0.9,16.3
			c0.5,3.9,0.6,8.3,2.9,11.6c2.7,3.9,8.6,4.6,12.9,5.3c5.9,1,11.8,1.5,17.8,1.4c6.1-0.1,12.3-0.1,18.4-0.8c2.9-0.3,5.7-0.8,8.6-1.2
			c2.4-0.4,4.9-0.4,6.9-2C1018.2,853.6,1019.3,849.2,1018.8,844.8z"/>
		<path style="fill:#76ADDE;" d="M992.7,730.5c0.1-3.2-0.9-6-2.2-8.8c-1-2.2-2.8-2.9-4.9-3.3c-2.3-1.6-5.4-1.2-8.2-1.2
			c-0.6,0-1.2-0.1-1.8-0.1c-1.3,0-2.7,0-3.9,0.4c-1.4,0.3-2.7,0.9-3.7,2.1c-2.4,2.9-1.3,8.3-1.2,11.9c0.1,2.3,0.3,4.8,0.6,7.1
			c0,0.3,0.3,1.3,0.6,2.3c0.2,1.4,0.3,2.8,0.5,4.2c-0.6,1-0.3,2.1,0.3,2.8c0.2,1,1,1.6,2.1,1.7c1.8,0.2,3.6-0.7,5.4-1
			c1.3-0.2,2.5,0,3.9,0c1.4,0,2.5-0.5,3.9-0.6c2.8-0.4,6.5,0.1,8.1-3c0.5-0.9,0.5-1.9,0.4-2.8C992.6,738.2,992.6,734.3,992.7,730.5z
			"/>
		<path style="fill:#4CB79C;" d="M1000.5,825.1c0-2.3-0.2-4.5-0.3-6.8c0-1.9,0.4-3.7,0.3-5.6c-0.1-2.2-0.8-4.3-0.8-6.5
			c0-2.2,0.1-4.4,0.1-6.7c0-2.3-0.6-4.4-0.6-6.6c0-1.9,0.6-3.9,0.7-5.7c0.2-2,0.6-4,0.5-6c0-1.5-0.5-2.9-0.6-4.4
			c-0.2-1.7,0.2-2.9-0.5-4.5c-0.3-0.6-1.2-1.1-1.9-1.1c-2,0.1-3.9,0.7-5.8,1c-2.6,0.5-4.4-0.6-6.8-0.9c-4.8-0.7-9.8-0.7-14.7-0.7
			c-1,0-1.7,0.6-2,1.4c-0.9,0.2-1.6,0.8-1.4,2c0.6,4.9,0.5,9.8,0.8,14.7c0.3,5.1,0.7,10.3,1,15.4c0.2,4.7-0.1,9.5-0.1,14.2
			c0,4.6,0.9,9.3,1.4,13.9c0.1,0.9,0.6,1.9,1.6,2.1c3.2,0.7,6.5-1,9.7-1.1c4.2-0.1,8.5,0.5,12.7,0.2c2.4-0.2,5.4-0.4,6.3-2.9
			C1000.9,828.8,1000.6,826.7,1000.5,825.1z"/>
	</g>
	<g>
		<path style="fill:#E83B3F;" d="M779.2,782.3c4.9-6.8,7.4-15.3,8.5-23.5c1.2-8.7,3.1-17.4,1.8-26.1c-0.5-3.4-2.2-12-7.4-7.5
			c-2.5,2.1-4.1,7.3-4.9,10.4c-0.6,2.2-0.8,4.6-1.1,6.8c0,0.4-0.1,0.8-0.1,1.2c-1-1.8-2-3.7-3-5.5c-1.2-2.3-2.4-4.8-2.8-7.5
			c-0.4-2.6,0-5.2-0.1-7.8c-0.1-5.3,0.7-10.5,0.7-15.9c0-5.4,1.2-10.6,0.4-16.1c-0.4-2.8-1.6-6.9-5.1-7.1c-3.9-0.2-4.8,4-5.3,6.9
			c-0.1,0.4-1.2,20.1-1.2,20.4c-0.3-4-0.2-27.9-4.2-29.5c-0.9-0.4-2.5,0.2-2.9,1.2c-2.5,5.8-3.4,11.7-3.4,18c0,3.3,0.1,6.6-0.5,9.8
			c0,0.2-0.2,0.7-0.4,1.3c-0.1-0.6-0.1-1.2-0.2-1.8c-0.2-3.2-0.2-6.3-0.4-9.5c-0.2-3.1-0.4-6.3-1.4-9.2c-0.9-2.7-2.9-5.6-6.1-4.6
			c-3.6,1.1-4,5.5-4.2,8.6c-0.2,4-0.8,8-1.1,12c-0.1-1.1-0.2-2.1-0.4-3.2c-0.5-3.3-0.4-9.7-3.4-12.1c-1.1-0.9-2.5-1-3.6,0
			c-2.6,2.5-3.3,6.5-3.7,9.9c-0.5,5.3,0,10.9,0,16.3c0,10.2-1.4,20.4-2.2,30.6c-0.4,5.1-1.6,10.2-1.6,15.3c0,5.1-0.4,10.8,0.8,15.8
			c0.5,2.2,1.5,4.3,2.4,6.4c0.9,2.2,2.6,4.5,3.1,6.8c0.5,2-0.3,4.9-0.6,7c-0.4,2.7-0.3,5.4-0.9,8c-1.3,6-0.5,11.7-1,17.8
			c-0.3,3.5-0.5,7.1-1.1,10.6c-0.3,1.5-0.6,3-0.8,4.6c-0.1,0.5,0.1,2.2-0.2,2.6c-1.3,1.5-0.5,3.4,0.9,4.1c0.5,2,3.2,3.4,4.8,4.3
			c3.1,1.7,6.5,2.7,9.5,4.6c3.2,2,7,3.3,10.8,4c3.9,0.8,7.9-0.1,11.8-0.7c3.6-0.5,7.8-1.1,11.1-2.5c3.7-1.5,6.9-4,9.8-6.7
			c6-5.8,1.7-14.5,0.1-21.3c-1-4.6-1.5-9.3-2.3-13.9c-0.4-2-1-3.8-1.5-5.7c-0.7-2.2-0.8-4.5-1.3-6.8c-0.4-2-1.2-3.9-1.9-5.9
			c-0.5-1.4-1.6-3.5-1.7-5c-0.1-1.9,1.9-3.6,3-4.9C776.2,785.9,777.8,784.2,779.2,782.3z"/>
		<path style="fill:#E83B3F;" d="M825.5,787.7c1.1,1.4,3.1,3,3,4.9c-0.1,1.5-1.2,3.6-1.7,5c-0.7,2-1.5,3.8-1.9,5.9
			c-0.5,2.3-0.6,4.5-1.3,6.8c-0.6,1.9-1.2,3.7-1.5,5.7c-0.9,4.6-1.3,9.3-2.3,13.9c-1.5,6.8-5.8,15.4,0.1,21.3
			c2.8,2.8,6.1,5.2,9.8,6.7c3.4,1.4,7.5,1.9,11.1,2.5c3.8,0.6,7.9,1.4,11.8,0.7c3.7-0.7,7.5-2,10.8-4c3-1.9,6.4-2.9,9.5-4.6
			c1.6-0.9,4.4-2.3,4.8-4.3c1.3-0.7,2.2-2.6,0.9-4.1c-0.3-0.4-0.2-2.1-0.2-2.6c-0.2-1.5-0.5-3-0.8-4.6c-0.6-3.5-0.8-7.1-1.1-10.6
			c-0.5-6,0.3-11.8-1-17.8c-0.6-2.6-0.5-5.4-0.9-8c-0.3-2.1-1.1-5-0.6-7c0.5-2.3,2.2-4.6,3.1-6.8c0.9-2.1,1.8-4.2,2.4-6.4
			c1.2-5,0.8-10.7,0.8-15.8c0-5.1-1.2-10.2-1.6-15.3c-0.8-10.2-2.2-20.4-2.2-30.6c0-5.4,0.6-11,0-16.3c-0.4-3.4-1.1-7.4-3.7-9.9
			c-1.1-1-2.5-0.9-3.6,0c-3,2.4-2.9,8.7-3.4,12.1c-0.2,1.1-0.3,2.1-0.4,3.2c-0.3-4-0.9-8-1.1-12c-0.2-3.1-0.6-7.5-4.2-8.6
			c-3.3-1-5.2,1.9-6.1,4.6c-1,2.9-1.1,6.2-1.4,9.2c-0.2,3.2-0.2,6.3-0.4,9.5c0,0.6-0.1,1.2-0.2,1.8c-0.2-0.6-0.4-1.1-0.4-1.3
			c-0.6-3.2-0.5-6.5-0.5-9.8c0-6.3-0.8-12.2-3.4-18c-0.4-0.9-1.9-1.5-2.9-1.2c-4,1.6-3.9,25.5-4.2,29.5c-0.1-0.4-1.2-20.1-1.2-20.4
			c-0.5-2.9-1.4-7.1-5.3-6.9c-3.5,0.2-4.7,4.3-5.1,7.1c-0.7,5.5,0.4,10.7,0.4,16.1c0,5.3,0.9,10.5,0.7,15.9
			c-0.1,2.6,0.3,5.2-0.1,7.8c-0.4,2.7-1.6,5.1-2.8,7.5c-1,1.9-2,3.7-3,5.5c0-0.5,0-0.9-0.1-1.2c-0.2-2.3-0.5-4.6-1.1-6.8
			c-0.8-3-2.4-8.2-4.9-10.4c-5.2-4.5-6.9,4-7.4,7.5c-1.3,8.7,0.6,17.4,1.8,26.1c1.1,8.2,3.6,16.7,8.5,23.5
			C822.4,784.2,824,785.9,825.5,787.7z"/>
	</g>
	<g>
		<path style="fill:#E83B3F;" d="M1010.2,480.9c-0.4-2.5,0.7-6.1-1.4-8.2c-0.5-0.5-2-0.7-2.3-1c-0.1-0.2,0-1.9-0.2-2.4
			c-0.7-1.8-2.3-2.1-3.9-2.2c-0.3-2-0.7-4.1-2.7-5.1c-1.2-0.5-3.1-0.2-3.3,1.4c-0.3,1.7-0.1,3.3,0.1,4.9c-1.7,0.1-3.6,0.2-4.8,1.5
			c-0.8,0.9-0.9,1.9-0.7,2.8c-1.8,0.2-3.6,0.7-4.8,2.1c-1.6,1.9-0.7,5.6-0.7,7.8c0,1.3,0.9,2,1.9,2.2c0,0.2,0.1,0.3,0.1,0.4
			c0.6,2.3,2.3,2.6,4.4,2.6c3.3,0,6.6,0.2,9.9-0.1c1.6-0.1,3-0.4,4.6-0.4c1,0,2.1,0,2.9-0.6C1011.3,485.3,1010.5,482.7,1010.2,480.9
			z"/>
		<path style="fill:#4CB79C;" d="M1033,591.6c-0.3-2.8,0.1-5.6,0-8.4c-0.2-5.9-1-11.7-2.1-17.5c-0.5-2.8-0.8-5.5-1.1-8.3
			c-0.3-3-1.5-6-1.3-9c0.1-2.4,1.2-4.4,2-6.6c1-2.6,1.9-5.3,3-7.9c2.3-5.4,4.6-11,3.9-17c-0.6-4.9-3.3-10-6.7-13.5
			c-3.7-3.8-9.5-3.7-13.3-7.3c-2.2-2.1-3.2-4.5-3.9-7.3c-0.6-2.4,0-4.9-1.1-7.2c-0.4-0.9-1.7-1.2-2.6-1c-1.9,0.4-3.5,0.9-5.5,0.9
			c-2.2,0-4.4,0-6.6,0c-3.9,0-7.7-0.5-11.5,0.1c-0.7,0.1-1.4,0.9-1.6,1.6c-0.9,3.8,1.8,9.6-1.4,12.4c-3.3,2.9-7.6,4.6-11,7.3
			c-2.9,2.3-4.6,5.6-5.6,9.1c-0.5,1.9-0.7,3.8-0.8,5.7c-0.2,2.3-0.9,4.5-0.7,6.8c0.5,3.8,2.1,7.1,3.4,10.6c-0.1,0.2,0.4,5.4,0.8,7.7
			c0.6,3.2-0.2,6.8-0.3,10.1c-0.2,6.2-0.2,12.4-1.2,18.5c-0.9,5.4-1.6,10.8-2.1,16.2c-0.4,5.7,0,11.6,0,17.4c0,2.3,0.5,4.6,0.7,6.9
			c0.1,2.7,0.3,5.2,0.9,7.9c0.9,4.6,0.7,9.9,4.7,13c1.6,1.2,3,1.3,4.9,1.6c2.8,0.4,5.3,1.5,8.1,1.8c2.4,0.2,4.8,0.9,7.2,0.8
			c2.5-0.1,5-0.9,7.5-1.2c5.8-0.5,11.5-0.9,17.2-1.9c4.6-0.8,8.5-2.8,12.1-5.8c3.3-2.8,4.8-7,5.1-11.2c0.2-2.4,0.6-4.9,0.7-7.3
			c0-3.1-0.6-6.3-0.9-9.5C1033.8,597.4,1033.3,594.5,1033,591.6z"/>
		<path style="fill:#E83B3F;" d="M1017,566.7c-0.2-9.1-1.9-17.6-5-26.1c-1.2-3.4-2.5-6.4-4.7-9.2c-1.7-2.2-3.3-2.7-5.7-2.8
			c-0.5-0.3-1-0.6-1.5-0.8c-1.4-0.5-2.9-0.8-4.4-0.7c-3,0.2-5.7,2.3-7.5,4.6c-3.9,5-5.3,12.8-6.1,18.9c-1.1,8.4-1.8,16.8-1.8,25.3
			c0,7.5-0.2,15.1,1.8,22.4c1.6,5.9,4.8,9.9,10.8,11.5c5,1.3,11.2,1.9,15.5-1.3c5.4-4.1,6.7-10.4,7.8-16.7c0.7-3.9,1.4-7.7,1.4-11.6
			C1017.6,575.6,1017,571.2,1017,566.7z"/>
	</g>
	<g>
		<path style="fill:#E83B3F;" d="M728,424.1c-0.5-2.9-1.1-5.8-1.4-8.6c-0.3-2.4,0.1-4.8-0.3-7.2c-0.1-0.7-0.9-1.5-1.6-1.6
			c-2-0.5-4.1-0.5-6.1-0.1c-1.1,0.2-2,0.5-2.9,1c-1,0.5-2.1,1.7-3.2,2.1c-2.1,0.6-2,3.2-0.6,4.2c0.4,6.4,2.9,13.1,6.4,18.3
			c1.8,2.7,3.6,5.5,5.6,8.1c1.2,1.5,2.7,3.4,4.8,3.2c1.2-0.2,2.4-0.9,2.3-2.3C730.7,435.4,728.9,429.6,728,424.1z"/>
		<path style="fill:#E83B3F;" d="M732,564.6c-0.7-7.7-1.1-15.4-2.1-23c-0.6-4.1-1.3-8.3-1.2-12.4c0.1-4.3-0.4-8.4-0.5-12.7
			c-0.2-7.1-2.3-13.4-6.7-19.1c-2.1-2.6-4.4-5-7.1-7c-2.9-2.2-7.2-3.4-9.5-6.2c-1.5-1.9-0.8-2.6,1-3.8c1-0.6,1.7-1.6,2.1-2.7
			c1.4-3.4,0.3-6.4-0.9-9.6c-0.9-2.4-1.6-4.3,0.8-5.9c1.3-0.8,2.5-1.2,3.3-2.5c2-2.9,1-5.5-1.1-7.8c-0.7-0.8-1.4-1.5-1.9-2.4
			c-0.9-1.6-0.8-1.5,0-2.6c1.1-1.4,1.9-1.8,2.2-3.8c0.4-2.8-1-7.2-3-9.2c-2.3-2.4-6.3-1.7-9.2-1.6c-3.7,0.2-7.2-0.5-10.8,0
			c-2.6,0.4-5.8,0.2-7.3,2.9c-0.6,1-0.6,2.1-0.5,3.2c-0.3,4.3-2,8.2-2.9,12.4c-0.9,4.3-1.7,8.7-2.8,13c-1,3.9-2.4,7.6-3.7,11.4
			c-1.5,4.2-2.5,8.5-3.6,12.8c-2.2,8.3-3.8,16.5-4.9,25.1c-0.5,4.2-0.7,8.3-0.8,12.5c-0.1,4.4-0.9,8.5-0.4,12.9c0.4,4,0.1,8,0.4,12
			c0.4,4.4,0.4,8.6,0.5,13c0.1,3.8,0.7,7.4,0.7,11.2c0,4.4,0.2,8.8,0.8,13.3c0.4,2.9,0.7,6,2.1,8.7c1.5,2.9,4.2,4.5,7.2,5.6
			c7.4,2.8,15.1,3.3,22.9,3.6c3.6,0.2,7.5-0.8,11-1.8c4.1-1.1,8-2.3,12.2-3.2c6.8-1.4,10.7-5.1,12.3-11.9
			C732.5,581.1,732.7,572.9,732,564.6z"/>
		<path style="fill:#4CB79C;" d="M736.1,403.6c-2.1-5.2-11.2-4.7-15.6-4.7c-7.7,0-15.3,0.1-23,0c-3.3-0.1-6.3,0.1-9.5,0.8
			c-3.1,0.6-6.6,1.1-9.6,2.3c-5.1,2.1-8.4,8.5-10.9,13.1c-1.9,3.4-7.1,10-4.7,14.2c1.3,2.3,4.6,2.5,6.9,2.5c2,0.1,3.9-0.4,5.8-0.5
			c1-0.1,2.9-0.3,4.3-0.2c0.1,1,0.2,2.1,0.2,2.9c0.1,1.6,1.6,2.4,2.8,2.2c0.3,0.7,1,1.2,2,1.1c3-0.2,6.2-0.3,9.2-0.6
			c2.2-0.2,5.6,0,7.5-1.5c1.7-1.4,2-4.1,3.2-6c1.9-2.9,4.3-5.4,6.5-8c5.1-6.1,12.1-7,19.5-7.7c1.8-0.2,4.3-0.5,5.2-2.2
			C737.1,409.4,736.8,405.6,736.1,403.6z"/>
		<path style="fill:#4CB79C;" d="M719.9,555.2c-0.5-4.6-0.8-9.3-1.4-13.9c-0.2-1.6-0.4-3.2-0.5-4.7c0.2-1.9,0.3-3.9,0.4-5.9
			c0.1-6-0.5-11.4-2.1-17.2c-1.2-4.4-3.3-8.6-6.9-11.4c-3.5-2.7-9.5-5.9-14-4.8c-0.3,0.1-0.5,0.2-0.7,0.3
			c-6.4,0.4-12.8,4.5-15.7,10.3c-3.6,7-4.4,14.9-5.2,22.6c-0.9,8.6-1.5,17.7-0.7,26.3c0.4,4.2,0.9,8.4,1.4,12.6
			c0.5,3.9,0.7,8.2,2,11.9c2.3,7,10,8,16.4,8c2.6,0,5.1,0.1,7.7,0.4c1.5,0.2,3,0.3,4.5,0c3.2-0.6,5.7-2.4,8.3-4.1
			c2.9-1.9,3.4-3.3,4.1-6.5c0.9-4.1,1.5-8.2,2.1-12.4C720.1,562.7,720.3,559.3,719.9,555.2z"/>
	</g>
	<g>
		<path style="fill:#4CB79C;" d="M790,131.6c-1.2-3.8-7.1-5.4-10.5-4.5c-7.1,1.8-14.5,1.9-21.7,2.4c-3.3,0.2-10.6,1-11.4,5.3
			c-0.4,2.3,1.4,3.2,3,4.2c1.3,0.8,0.7-0.2,0.9,1.3c0.1,0.5,0,1.2,0,1.7c0,1.6,0.2,2.9,0.6,4.3c-2.7-0.1-5.7,0.1-7.5,2.4
			c-1.1,1.3-1.5,3.1-1.5,4.8c0.1,2.7,0.7,5.3,0.6,8.1c0,0,0,0,0,0c0,0.2,0,0.4,0,0.7c0,1.2,0,2.5,0.9,3.5c1.2,1.4,3.4,1.3,5.1,1.2
			c2.5,0,5-0.1,7.6-0.1c2.5,0,4.9,0.1,7.4,0.1c1.4,0,2.8-0.2,3.9-1.2c2-2,1-6.7,0.9-9.3c0-3-0.4-6.5-3.1-8.4c-0.9-0.6-1.9-1-2.9-1.3
			c0-0.1,0-0.2,0-0.3c0-1.5,0.2-3,0-4.5c0-0.2-0.5-1.3-0.5-1.7c0.1,0.2,1.8-0.2,1.7-0.2c3.2-0.5,6.5,0.1,9.7-0.4
			c3.1-0.4,6.2-1.4,9.3-2.2c2.7-0.8,5.2-1.8,7.1-3.9C789.9,133,790.2,132.3,790,131.6z"/>
		<path style="fill:#9CC542;" d="M793.6,229.6c-0.4-2.6-0.7-5.2-0.6-7.9c0.1-2.2,0.6-4.3,0.7-6.5c0.1-2.1,0-4.3-0.1-6.5
			c-0.2-2.6-1.1-5-1.3-7.6c-0.3-4.1-0.3-8.2-1-12.2c-0.2-0.9-0.2-1.8-0.3-2.7c0.2-1.4,0.4-2.8,0.5-4.1c0.7-5.4-0.8-12.6-5.1-16.3
			c-2.2-1.9-5.3-2.8-8.2-2.3c-0.8,0.1-1.6,0.5-2.4,0.6c-1.1,0.1-2.1-0.3-3.2-0.5c-1.9-0.4-3.8-0.7-5.7-0.8c-2.3-0.1-4.6,0.2-6.9-0.2
			c-2.1-0.3-4.1-0.7-6.2-1.1c-2.2-0.4-4.4-0.9-6.6-1.2c-2.3-0.3-4.3,0.5-6.6,0.5c-0.6,0-1.1,0.3-1.5,0.6c-4.2,0-8.5-0.1-12.7,0.5
			c-3.3,0.5-7.4,0.4-9.6,3.4c-2.4,3.3-2.8,8.4-3.6,12.3c-1,4.8-1.8,9.7-1.7,14.7c0.1,5.2,0.5,10.4-0.2,15.6c-0.6,4.5-1,9.1-0.5,13.6
			c0.5,4.7,0.5,9.5,1.2,14.1c0.6,3.8,0.8,8,3.3,11.1c1.1,1.3,2.6,2.2,3.7,3.5c1.3,1.6,1.3,3.9,1.4,5.9c0.1,3.9,0.6,7.6,0.9,11.5
			c0.3,4.7,1.3,9.7,0.6,14.5c-0.6,4.2-0.2,8.6,0.5,12.8c0.9,5,0.4,10.1,0.8,15.1c0.4,4.8,0.4,9.6,0.3,14.4c0,0.9,0,1.6,0.2,2.4
			c0.3,1.2,0.4,1-0.6,1.5c-1.3,0.6-3,0.8-4.3,1.5c-2.6,1.4-3.7,3.9-2.8,6.8c1,3.1,5.4,4,8.2,5c9.3,3.5,19.1,0.8,28.6,0.5
			c5-0.2,10.1-1.3,15-1.9c2.3-0.3,4.7-0.5,7-0.8c2.5-0.3,4.9-1.4,7.5-1.4c3.4,0,7.4-0.1,9.7-3c2-2.6,0.9-5.5-1.7-7
			c-1.2-0.7-2.7-1-3.9-1.8c-1.7-1-1.3-2.4-1.1-4.3c0.5-4.9,0-9.8,0.1-14.6c0.1-4.9,0.7-9.7,0.7-14.6c-0.1-4.9-0.3-9.9,0.3-14.7
			c0.6-4.8-0.1-9.5,0.4-14.2c0.2-2,0.7-3.9,0.6-5.9c0-1.4-0.3-2.8,0.3-4c0.5-0.9,1.5-1.4,2.3-2c2.6-2.1,4-5.4,4-8.7
			c0-2.3,0.5-4.5,0.6-6.8C794.4,234.1,793.9,231.8,793.6,229.6z"/>
		<path style="fill:#8FD2E7;" d="M781.2,194.8c-0.3-4.6,2-12.9-4.1-14.6c-3.1-0.9-6.9-0.5-10.2-0.9c-2.3-0.2-4.7-0.6-7-0.8
			c-2.6-0.3-5.2,0.1-7.8-0.3c-4.1-0.6-8.3-1.5-12.5-1.9c-2.1-0.2-4.2,0-6.4,0c-1.9,0-3.5-0.3-5.3-0.5c-0.2-0.1-0.4-0.1-0.6-0.1
			c-0.1,0-0.3,0-0.4,0c-1.8-0.1-2.3,1.7-1.7,2.9c-1.1,2-0.6,4.5-0.5,6.7c0.1,4.4-0.3,8.6-0.7,12.9c-0.4,4-0.5,8-0.6,12
			c-0.1,3.9-0.4,7.7,0.3,11.6c0.5,2.6,0.6,6.8,2.5,8.8c2,2.2,6.9,2,9.6,2.4c4,0.5,8.1,1,12.1,1.3c4.5,0.3,9,0.1,13.4,0.8
			c3.2,0.5,6.3,0.8,9.5,1c2.4,0.2,5.2,0.5,7-1.4c1.6-1.6,2-4.3,2.4-6.4c0.5-3.4,1.2-6.8,1.4-10.3
			C782.2,210.4,781.8,202.6,781.2,194.8z"/>
	</g>
	<g>
		<path style="fill:#9CC542;" d="M966.8,420.6c-0.6-4.9-0.9-9.8-1.5-14.7c-0.7-5.5-0.6-11-1.2-16.5c-0.7-5.8-0.1-11.5-1-17.3
			c-0.3-1.8-0.9-3.6-1-5.5c-0.1-1.4,0.1-2.7,0-4.1c-0.1-1.6-0.6-3.1-0.8-4.7c-0.1-1.5-0.1-3-0.3-4.5c-0.1-0.5-0.1-1-0.2-1.4
			c0-0.6,0-1.1,0-1.7c0-7.5,1.3-15.7-3.1-22.2c-3.2-4.6-9-5.9-14.3-6.2c-3-0.2-6.2-0.4-9.2,0.1c-0.7,0.1-1.4,0.3-2.1,0.4
			c-0.2,0-0.4,0-0.5,0c-6.4,0-13-0.2-19.3,1.3c-4.9,1.2-10,4.1-12.4,8.7c-2.6,5.1-2.9,11.1-2.8,16.7c0,0.2,0,0.3,0.1,0.5
			c-0.2,5.2-0.1,10.4-0.1,15.6c0,6.5,0.2,12.9,0.1,19.4c-0.1,5.7-1.2,11.2-1.3,16.9c-0.1,5.4-1.6,10.9-0.9,16.3
			c0.5,3.9,0.6,8.3,2.9,11.6c2.7,3.9,8.6,4.6,12.9,5.3c5.9,1,11.8,1.5,17.8,1.4c6.1-0.1,12.3-0.1,18.4-0.8c2.9-0.3,5.7-0.8,8.6-1.2
			c2.4-0.4,4.9-0.4,6.9-2C966.2,429.5,967.3,425,966.8,420.6z"/>
		<path style="fill:#76ADDE;" d="M940.7,306.3c0.1-3.2-0.9-6-2.2-8.8c-1-2.2-2.8-2.9-4.9-3.3c-2.3-1.6-5.4-1.2-8.2-1.2
			c-0.6,0-1.2-0.1-1.8-0.1c-1.3,0-2.7,0-3.9,0.4c-1.4,0.3-2.7,0.9-3.7,2.1c-2.4,2.9-1.3,8.3-1.2,11.9c0.1,2.3,0.3,4.8,0.6,7.1
			c0,0.3,0.3,1.3,0.6,2.3c0.2,1.4,0.3,2.8,0.5,4.2c-0.6,1-0.3,2.1,0.3,2.8c0.2,1,1,1.6,2.1,1.7c1.8,0.2,3.6-0.7,5.4-1
			c1.3-0.2,2.5,0,3.9,0c1.4,0,2.5-0.5,3.9-0.6c2.8-0.4,6.5,0.1,8.1-3c0.5-0.9,0.5-1.9,0.4-2.8C940.5,314,940.6,310.2,940.7,306.3z"
			/>
		<path style="fill:#4CB79C;" d="M948.5,400.9c0-2.3-0.2-4.5-0.3-6.8c0-1.9,0.4-3.7,0.3-5.6c-0.1-2.2-0.8-4.3-0.8-6.5
			c0-2.2,0.1-4.4,0.1-6.7c0-2.3-0.6-4.4-0.6-6.6c0-1.9,0.6-3.9,0.7-5.7c0.2-2,0.6-4,0.5-6c0-1.5-0.5-2.9-0.6-4.4
			c-0.2-1.7,0.2-2.9-0.5-4.5c-0.3-0.6-1.2-1.1-1.9-1.1c-2,0.1-3.9,0.7-5.8,1c-2.6,0.5-4.4-0.6-6.8-0.9c-4.8-0.7-9.8-0.7-14.7-0.7
			c-1,0-1.7,0.6-2,1.4c-0.9,0.2-1.6,0.8-1.4,2c0.6,4.9,0.5,9.8,0.8,14.7c0.3,5.1,0.7,10.3,1,15.4c0.2,4.7-0.1,9.5-0.1,14.2
			c0,4.6,0.9,9.3,1.4,13.9c0.1,0.9,0.6,1.9,1.6,2.1c3.2,0.7,6.5-1,9.7-1.1c4.2-0.1,8.5,0.5,12.7,0.2c2.4-0.2,5.4-0.4,6.3-2.9
			C948.8,404.6,948.5,402.6,948.5,400.9z"/>
	</g>
	<g>
		<path style="fill:#E83B3F;" d="M827.4,417.7c-1.6-2.4-4-4.5-6.1-6.5c-2.2-1.9-5.2-3.7-7.7-1.3c-0.7,0.7-1.2,2-0.8,3
			c0.8,1.9,1.8,3.3,3.2,4.9c0.6,0.6,1,1.4,1.5,2c0.5,0.7,1.3,1.3,1.7,2.1c0.2,0.4,0.5,0.7,0.8,0.9c1.3,1.3,3.9,1.4,5-0.4
			c-0.2,0.3-0.2,0.2,0.5-0.1c0.3-0.1,0.6-0.3,0.9-0.5C827.6,421.1,828.4,419.1,827.4,417.7z"/>
		<path style="fill:#76ADDE;" d="M868.7,465.2c-0.8-7-2.5-15.4-7.7-20.5c-6-5.9-10.7-13.5-15.7-20.4c-3.5-4.7-9.3-11.3-15.9-10.8
			c-3.3,0.3-5.5,2.3-7.3,4.9c-1.9,2.7-4.6,5.7-5.8,8.8c-0.3,0.9-0.1,1.8,0.5,2.6c0.1,0.4,0.4,0.8,0.7,1.1c2.7,2.8,4.9,6.5,6.8,9.9
			c2.6,4.7,0.8,8.3-2.6,11.9c-5,5.3-11.4,9.1-15,15.6c-7.6,13.7-6.5,31.5-5.6,46.5c1,17.4,3.2,34.7,4.6,52.1c0.6,8,1.6,16,2.2,24
			c0.4,5.9,1.6,12.4,7.6,14.7c6.6,2.6,14.8,1.1,21.7,1.2c3.6,0,6.9-0.6,10.4-0.8c3.1-0.3,7,0.1,9.9-1.2c5.8-2.7,7.2-9.5,8-15.3
			c1.3-8.2,0.4-16.6,0.8-24.8c0.4-8,0.4-16,1.1-23.9c0.8-8.8-0.5-17.8,0.1-26.7c0.3-3.9,1-7.8,1.3-11.8c0.3-4.7,0.1-9.4,0.1-14
			c0-4.1,0.3-8,0.6-12.1C869.8,472.7,869.1,468.8,868.7,465.2z"/>
		<path style="fill:#9CC542;" d="M857.2,494c-0.3-6.9-2.1-13.3-8.9-16.1c-6.3-2.5-14.9-2.4-21.5-1.3c-7.1,1.2-14.1,1-16.4,8.4
			c-0.5,0.5-0.8,1.2-0.8,2.1c0,10.2,0.6,20.4,2.1,30.5c1.4,9.8,2.5,20.6,5.8,30c2.3,6.4,8.8,6.9,14.7,6.8c4-0.1,7.9-0.3,11.9-0.9
			c3.7-0.6,7.3-0.8,9.7-4c4.8-6.6,3.4-17,3.4-24.6C857.1,514.5,857.6,504.2,857.2,494z"/>
		<path style="fill:#E83B3F;" d="M843.3,424.3c-0.1,0-0.2,0.1-0.3,0.1c-0.9,0.3-1.8,1-2.1,1.9c-1.2,1.2-3.3,1.8-4.6,2.8
			c-1.8,1.3-3.3,2.9-5.2,4c-2.8,1.6-6.8,4-7.6,7.4c-0.8,3.8,5,5.4,5.9,1.6c0.3-1.2,2.5-2.4,3.4-3c1.9-1.2,3.7-2.1,5.4-3.6
			c2.2-1.9,5-3,7.1-5c0.6-0.3,1.1-0.8,1.3-1.6c0-0.1,0.1-0.1,0.1-0.2C848,426.6,845.8,423.4,843.3,424.3z"/>
	</g>
	<g>
		<path style="fill:#E8A26E;" d="M653,816.2c-0.1-1.6-0.6-3.1-0.7-4.6c-0.1-2,0-4.1-0.2-6.1c-0.4-3.7-0.2-7.1-0.3-10.8
			c0-1.4-0.3-2.6-0.6-4c-0.4-2-0.1-3.9-0.3-5.9c-0.5-7.3-1.6-14.7-2.4-22c-0.8-7-0.3-14.1-1.5-21c-0.8-4.1-1.1-8.2-1.7-12.3
			c-0.6-3.5-0.2-7.2-0.9-10.6c-0.6-3.1-0.9-6.1-1.8-9.2c-0.9-3.1-2.5-4.5-5.4-5.8c-3.2-1.5-6.4-3.2-9.9-4c-3.6-0.9-7.4-1-11.1-1
			c-1.9,0-3.9-0.2-5.8,0.1c-2,0.2-3.6,1.1-5.5,1.7c-2.5,0.8-6.5,0.4-8.3,2.6c-0.1,0.2-0.2,0.3-0.3,0.5c-5-0.6-10.8,0.5-15.1,2.7
			c-4.7,2.5-7.4,7.3-9.3,12.1c-4.7,11.7-8.1,24.7-8.9,37.3c-0.5,7.8-1.3,15.7-2.4,23.4c-0.5,3.5-0.5,6.9-0.9,10.4
			c-0.3,3.6-1,7.3-1,11c0,4.8-1.8,10.1-0.3,14.8c1.4,4.4,7,7.2,11.3,7.9c3.5,0.6,7.1,0.1,10.5,0.5c3.8,0.4,7.4,1,11.2,1.1
			c3.6,0,7.1,0.5,10.7,0.7c4,0.2,8.1,0,12.1,0c6.7,0.1,13.6-0.2,20.2-0.9c3.2-0.3,6.4-1,9.6-1.2c2.2-0.2,4.7-0.5,6.5-1.7
			C652.3,820.3,653.1,818.4,653,816.2z"/>
		<path style="fill:#B37057;" d="M619.9,470.6c-0.8-3.6-1.1-8.5-5.6-9.1c-8.7-1.2-9.4,12.3-9.9,17.9c-1,11.7-1.4,68.9-2.3,80.6
			c-0.5,6,0.1,12.2,0.2,18.3c0.1,6.1-0.8,12.2-0.7,18.3c0.1,7.1,0.4,14.3-0.4,21.4c-0.4,3.5-0.9,7-1.1,10.5c-0.1,3.6,0.5,7,0.7,10.6
			c0.4,6.7,0.6,13.5,0.9,20.2c0.2,3.5,0.5,7,0.5,10.5c0,1.5-0.1,3.1,0,4.6c0.1,1.8,0.7,3.6,0.7,5.4c0,1.5,1.2,2.3,2.4,2.4
			c0.3,0.9,1.1,1.5,2.3,1.5c2.5,0,5.2-0.4,7.7-0.9c1.2-0.3,1.7-1.3,1.8-2.4c0.3-2.8-0.7-5.1-1.1-7.8c-0.5-3.1-0.2-6.3-0.2-9.4
			c0-3.2-0.1-6.3,0-9.5c0.1-3.1,0.8-6.1,1.3-9.2c0.8-5.5,1-11.1,1.6-16.5c0.3-2.8-0.1-5.6,0.3-8.4c0.5-3.1,0.5-6.1,0.5-9.2
			c-0.1-6.2,0.8-12.3,0.9-18.5c0-6.4-0.2-12.8-0.3-19.2c-0.1-6.5,0.8-12.9,0.8-19.4c0-6.4,0-12.8,0-19.3
			C620.8,528,621.2,476.5,619.9,470.6z"/>
		<path style="fill:#C57F68;" d="M632.5,691.6c-0.7-3.7-1.9-9.2-4.8-11.9c-1.2-1.1-2.8-1.7-4.4-1.8c-2.5-0.2-4.6-1.1-7.1-1.4
			c-5.1-0.6-11.5-0.4-16.3,1.1c-4.3,1.4-8.1,3.5-9,8.3c-0.4,2.4,0,4.9-0.2,7.3c-0.2,3.6-0.7,7.2-0.7,10.8c0,1.1,0.6,1.8,1.3,2.2
			c0.9,1.3,2.5,2,4.4,2.3c5.1,0.8,10.9,0.4,16.1,0.1c2.8-0.1,5.5-0.6,8.3-0.9c2.5-0.2,4.8-0.2,7.3-0.2c3.5,0,5.2-1.9,5.7-5.2
			C633.6,698.9,633.1,695.1,632.5,691.6z"/>
		<path style="fill:#FAC494;" d="M579.6,779.4c-0.4-1.8-2.9-2.5-4.2-1.1c-4.2,4.8-5.3,12.4-6.4,18.4c-1.3,7-3.3,14.1-3.5,21.3
			c-0.1,0.4-0.2,0.9-0.1,1.3c0.2,2.8,3,3,5,3.6c2.4,0.8,5.1,2.1,7.4,0.3c2-1.5,2.1-4.2,2.1-6.5c0-3.7,0.6-7.3,0.6-11.1
			C580.5,797.2,581.6,787.8,579.6,779.4z"/>
		<path style="fill:#FAC494;" d="M604,813.6c0-2.1,0.3-4.2,0.2-6.3c-0.2-2.2-0.6-4.4-0.7-6.6c-0.2-4-0.5-7.9-1.2-11.9
			c-0.6-3.7-0.7-7.9-2.6-11.2c-1.1-1.8-4-1.5-4.6,0.6c-0.9,3.4-1.6,6.9-1.7,10.4c0,4-0.6,7.9-0.8,11.9c-0.1,4-0.2,7.9-0.7,11.9
			c-0.3,1.9-0.2,3.9-0.4,5.8c-0.2,1.9-0.9,3.5-0.9,5.4c0,2,2,2.8,3.5,2.2c2,1.8,5.9,1.5,8.9,0.8c0.8-0.2,1.6-0.9,1.7-1.7
			C605.2,821,604,817.5,604,813.6z"/>
		<path style="fill:#FAC494;" d="M627.7,817c-0.2-2.4-0.5-5-1-7.3c-1.3-6-1.7-12.5-2.9-18.6c-0.8-4.2-0.9-10.2-4.4-13.2
			c-1.3-1.1-2.9-0.8-3.9,0.5c-1.3,1.7-0.9,4.5-0.7,6.4c0.2,3.5,0.1,7,0.1,10.5v27.6c0,1.5,1.1,2.3,2.3,2.4c3.1,0.7,9,2.3,10.5-1.7
			C628.3,821.8,627.9,818.8,627.7,817z"/>
		<path style="fill:#FAC494;" d="M646.4,814.1c-0.7-4.4-1.2-8.8-1.7-13.2c-1-7.4-2.5-15.8-5.7-22.6c-0.7-1.5-2.9-1.6-3.9-0.5
			c-2.4,2.5-1.3,5.2-1,8.3c0.4,4.2,0.3,8.3,0.7,12.5c0.4,4,0.2,8,0.1,12c-0.1,2.1,0.1,4.2,0,6.2c0,2.1-0.8,4-0.8,6.1
			c0,2.5,2.9,3,4.3,1.7c2.7,0.5,6.5-0.8,7.8-2.6C647.9,819.8,646.8,816.6,646.4,814.1z"/>
	</g>
	<g>
		<path style="fill:#9CC542;" d="M538.6,399.3c-0.6-4.9-0.9-9.8-1.5-14.7c-0.7-5.5-0.6-11-1.2-16.5c-0.7-5.8-0.1-11.5-1-17.3
			c-0.3-1.8-0.9-3.6-1-5.5c-0.1-1.4,0.1-2.7,0-4.1c-0.1-1.6-0.6-3.1-0.8-4.7c-0.1-1.5-0.1-3-0.3-4.5c-0.1-0.5-0.1-1-0.2-1.4
			c0-0.6,0-1.1,0-1.7c0-7.5,1.3-15.7-3.1-22.2c-3.2-4.6-9-5.9-14.3-6.2c-3-0.2-6.2-0.4-9.2,0.1c-0.7,0.1-1.4,0.3-2.1,0.4
			c-0.2,0-0.4,0-0.5,0c-6.4,0-13-0.2-19.3,1.3c-4.9,1.2-10,4.1-12.4,8.7c-2.6,5.1-2.9,11.1-2.8,16.7c0,0.2,0,0.3,0.1,0.5
			c-0.2,5.2-0.1,10.4-0.1,15.6c0,6.5,0.2,12.9,0.1,19.4c-0.1,5.7-1.2,11.2-1.3,16.9c-0.1,5.4-1.6,10.9-0.9,16.3
			c0.5,3.9,0.6,8.3,2.9,11.6c2.7,3.9,8.6,4.6,12.9,5.3c5.9,1,11.8,1.5,17.8,1.4c6.1-0.1,12.3-0.1,18.4-0.8c2.9-0.3,5.7-0.8,8.6-1.2
			c2.4-0.4,4.9-0.4,6.9-2C538,408.2,539.2,403.7,538.6,399.3z"/>
		<path style="fill:#76ADDE;" d="M512.6,285c0.1-3.2-0.9-6-2.2-8.8c-1-2.2-2.8-2.9-4.9-3.3c-2.3-1.6-5.4-1.2-8.2-1.2
			c-0.6,0-1.2-0.1-1.8-0.1c-1.3,0-2.7,0-3.9,0.4c-1.4,0.3-2.7,0.9-3.7,2.1c-2.4,2.9-1.3,8.3-1.2,11.9c0.1,2.3,0.3,4.8,0.6,7.1
			c0,0.3,0.3,1.3,0.6,2.3c0.2,1.4,0.3,2.8,0.5,4.2c-0.6,1-0.3,2.1,0.3,2.8c0.2,1,1,1.6,2.1,1.7c1.8,0.2,3.6-0.7,5.4-1
			c1.3-0.2,2.5,0,3.9,0c1.4,0,2.5-0.5,3.9-0.6c2.8-0.4,6.5,0.1,8.1-3c0.5-0.9,0.5-1.9,0.4-2.8C512.4,292.7,512.5,288.9,512.6,285z"
			/>
		<path style="fill:#4CB79C;" d="M520.4,379.6c0-2.3-0.2-4.5-0.3-6.8c0-1.9,0.4-3.7,0.3-5.6c-0.1-2.2-0.8-4.3-0.8-6.5
			c0-2.2,0.1-4.4,0.1-6.7c0-2.3-0.6-4.4-0.6-6.6c0-1.9,0.6-3.9,0.7-5.7c0.2-2,0.6-4,0.5-6c0-1.5-0.5-2.9-0.6-4.4
			c-0.2-1.7,0.2-2.9-0.5-4.5c-0.3-0.6-1.2-1.1-1.9-1.1c-2,0.1-3.9,0.7-5.8,1c-2.6,0.5-4.4-0.6-6.8-0.9c-4.8-0.7-9.8-0.7-14.7-0.7
			c-1,0-1.7,0.6-2,1.4c-0.9,0.2-1.6,0.8-1.4,2c0.6,4.9,0.5,9.8,0.8,14.7c0.3,5.1,0.7,10.3,1,15.4c0.2,4.7-0.1,9.5-0.1,14.2
			c0,4.6,0.9,9.3,1.4,13.9c0.1,0.9,0.6,1.9,1.6,2.1c3.2,0.7,6.5-1,9.7-1.1c4.2-0.1,8.5,0.5,12.7,0.2c2.4-0.2,5.4-0.4,6.3-2.9
			C520.7,383.3,520.4,381.3,520.4,379.6z"/>
	</g>
	<g>
		<path style="fill:#E83B3F;" d="M461.4,688.5c-0.4-2.5,0.7-6.1-1.4-8.2c-0.5-0.5-2-0.7-2.3-1c-0.1-0.2,0-1.9-0.2-2.4
			c-0.7-1.8-2.3-2.1-3.9-2.2c-0.3-2-0.7-4.1-2.7-5.1c-1.2-0.5-3.1-0.2-3.3,1.4c-0.3,1.7-0.1,3.3,0.1,4.9c-1.7,0.1-3.6,0.2-4.8,1.5
			c-0.8,0.9-0.9,1.9-0.7,2.8c-1.8,0.2-3.6,0.7-4.8,2.1c-1.6,1.9-0.7,5.6-0.7,7.8c0,1.3,0.9,2,1.9,2.2c0,0.2,0.1,0.3,0.1,0.4
			c0.6,2.3,2.3,2.6,4.4,2.6c3.3,0,6.6,0.2,9.9-0.1c1.6-0.1,3-0.4,4.6-0.4c1,0,2.1,0,2.9-0.6C462.4,692.9,461.7,690.3,461.4,688.5z"
			/>
		<path style="fill:#4CB79C;" d="M484.2,799.3c-0.3-2.8,0.1-5.6,0-8.4c-0.2-5.9-1-11.7-2.1-17.5c-0.5-2.8-0.8-5.5-1.1-8.3
			c-0.3-3-1.5-6-1.3-9c0.1-2.4,1.2-4.4,2-6.6c1-2.6,1.9-5.3,3-7.9c2.3-5.4,4.6-11,3.9-17c-0.6-4.9-3.3-10-6.7-13.5
			c-3.7-3.8-9.5-3.7-13.3-7.3c-2.2-2.1-3.2-4.5-3.9-7.3c-0.6-2.4,0-4.9-1.1-7.2c-0.4-0.9-1.7-1.2-2.6-1c-1.9,0.4-3.5,0.9-5.5,0.9
			c-2.2,0-4.4,0-6.6,0c-3.9,0-7.7-0.5-11.5,0.1c-0.7,0.1-1.4,0.9-1.6,1.6c-0.9,3.8,1.8,9.6-1.4,12.4c-3.3,2.9-7.6,4.6-11,7.3
			c-2.9,2.3-4.6,5.6-5.6,9.1c-0.5,1.9-0.7,3.8-0.8,5.7c-0.2,2.3-0.9,4.5-0.7,6.8c0.5,3.8,2.1,7.1,3.4,10.6c-0.1,0.2,0.4,5.4,0.8,7.7
			c0.6,3.2-0.2,6.8-0.3,10.1c-0.2,6.2-0.2,12.4-1.2,18.5c-0.9,5.4-1.6,10.8-2.1,16.2c-0.4,5.7,0,11.6,0,17.4c0,2.3,0.5,4.6,0.7,6.9
			c0.1,2.7,0.3,5.2,0.9,7.9c0.9,4.6,0.7,9.9,4.7,13c1.6,1.2,3,1.3,4.9,1.6c2.8,0.4,5.3,1.5,8.1,1.8c2.4,0.2,4.8,0.9,7.2,0.8
			c2.5-0.1,5-0.9,7.5-1.2c5.8-0.5,11.5-0.9,17.2-1.9c4.6-0.8,8.5-2.8,12.1-5.8c3.3-2.8,4.8-7,5.1-11.2c0.2-2.4,0.6-4.9,0.7-7.3
			c0-3.1-0.6-6.3-0.9-9.5C484.9,805,484.4,802.1,484.2,799.3z"/>
		<path style="fill:#E83B3F;" d="M468.1,774.3c-0.2-9.1-1.9-17.6-5-26.1c-1.2-3.4-2.5-6.4-4.7-9.2c-1.7-2.2-3.3-2.7-5.7-2.8
			c-0.5-0.3-1-0.6-1.5-0.8c-1.4-0.5-2.9-0.8-4.4-0.7c-3,0.2-5.7,2.3-7.5,4.6c-3.9,5-5.3,12.8-6.1,18.9c-1.1,8.4-1.8,16.8-1.8,25.3
			c0,7.5-0.2,15.1,1.8,22.4c1.6,5.9,4.8,9.9,10.8,11.5c5,1.3,11.2,1.9,15.5-1.3c5.4-4.1,6.7-10.4,7.8-16.7c0.7-3.9,1.4-7.7,1.4-11.6
			C468.8,783.2,468.2,778.8,468.1,774.3z"/>
	</g>
	<g>
		<path style="fill:#4CB79C;" d="M368.8,473.8c-1.2-3.8-7.1-5.4-10.5-4.5c-7.1,1.8-14.5,1.9-21.7,2.4c-3.3,0.2-10.6,1-11.4,5.3
			c-0.4,2.3,1.4,3.2,3,4.2c1.3,0.8,0.7-0.2,0.9,1.3c0.1,0.5,0,1.2,0,1.7c0,1.6,0.2,2.9,0.6,4.3c-2.7-0.1-5.7,0.1-7.5,2.4
			c-1.1,1.3-1.5,3.1-1.5,4.8c0.1,2.7,0.7,5.3,0.6,8.1c0,0,0,0,0,0c0,0.2,0,0.4,0,0.7c0,1.2,0,2.5,0.9,3.5c1.2,1.4,3.4,1.3,5.1,1.2
			c2.5,0,5-0.1,7.6-0.1c2.5,0,4.9,0.1,7.4,0.1c1.4,0,2.8-0.2,3.9-1.2c2-2,1-6.7,0.9-9.3c0-3-0.4-6.5-3.1-8.4c-0.9-0.6-1.9-1-2.9-1.3
			c0-0.1,0-0.2,0-0.3c0-1.5,0.2-3,0-4.5c0-0.2-0.5-1.3-0.5-1.7c0.1,0.2,1.8-0.2,1.7-0.2c3.2-0.5,6.5,0.1,9.7-0.4
			c3.1-0.4,6.2-1.4,9.3-2.2c2.7-0.8,5.2-1.8,7.1-3.9C368.8,475.3,369,474.5,368.8,473.8z"/>
		<path style="fill:#9CC542;" d="M372.5,571.8c-0.4-2.6-0.7-5.2-0.6-7.9c0.1-2.2,0.6-4.3,0.7-6.5c0.1-2.1,0-4.3-0.1-6.5
			c-0.2-2.6-1.1-5-1.3-7.6c-0.3-4.1-0.3-8.2-1-12.2c-0.2-0.9-0.2-1.8-0.3-2.7c0.2-1.4,0.4-2.8,0.5-4.1c0.7-5.4-0.8-12.6-5.1-16.3
			c-2.2-1.9-5.3-2.8-8.2-2.3c-0.8,0.1-1.6,0.5-2.4,0.6c-1.1,0.1-2.1-0.3-3.2-0.5c-1.9-0.4-3.8-0.7-5.7-0.8c-2.3-0.1-4.6,0.2-6.9-0.2
			c-2.1-0.3-4.1-0.7-6.2-1.1c-2.2-0.4-4.4-0.9-6.6-1.2c-2.3-0.3-4.3,0.5-6.6,0.5c-0.6,0-1.1,0.3-1.5,0.6c-4.2,0-8.5-0.1-12.7,0.5
			c-3.3,0.5-7.4,0.4-9.6,3.4c-2.4,3.3-2.8,8.4-3.6,12.3c-1,4.8-1.8,9.7-1.7,14.7c0.1,5.2,0.5,10.4-0.2,15.6c-0.6,4.5-1,9.1-0.5,13.6
			c0.5,4.7,0.5,9.5,1.2,14.1c0.6,3.8,0.8,8,3.3,11.1c1.1,1.3,2.6,2.2,3.7,3.5c1.3,1.6,1.3,3.9,1.4,5.9c0.1,3.9,0.6,7.6,0.9,11.5
			c0.3,4.7,1.3,9.7,0.6,14.5c-0.6,4.2-0.2,8.6,0.5,12.8c0.9,5,0.4,10.1,0.8,15.1c0.4,4.8,0.4,9.6,0.3,14.4c0,0.9,0,1.6,0.2,2.4
			c0.3,1.2,0.4,1-0.6,1.5c-1.3,0.6-3,0.8-4.3,1.5c-2.6,1.4-3.7,3.9-2.8,6.8c1,3.1,5.4,4,8.2,5c9.3,3.5,19.1,0.8,28.6,0.5
			c5-0.2,10.1-1.3,15-1.9c2.3-0.3,4.7-0.5,7-0.8c2.5-0.3,4.9-1.4,7.5-1.4c3.4,0,7.4-0.1,9.7-3c2-2.6,0.9-5.5-1.7-7
			c-1.2-0.7-2.7-1-3.9-1.8c-1.7-1-1.3-2.4-1.1-4.3c0.5-4.9,0-9.8,0.1-14.6c0.1-4.9,0.7-9.7,0.7-14.6c-0.1-4.9-0.3-9.9,0.3-14.7
			c0.6-4.8-0.1-9.5,0.4-14.2c0.2-2,0.7-3.9,0.6-5.9c0-1.4-0.3-2.8,0.3-4c0.5-0.9,1.5-1.4,2.3-2c2.6-2.1,4-5.4,4-8.7
			c0-2.3,0.5-4.5,0.6-6.8C373.3,576.4,372.8,574.1,372.5,571.8z"/>
		<path style="fill:#8FD2E7;" d="M360.1,537.1c-0.3-4.6,2-12.9-4.1-14.6c-3.1-0.9-6.9-0.5-10.2-0.9c-2.3-0.2-4.7-0.6-7-0.8
			c-2.6-0.3-5.2,0.1-7.8-0.3c-4.1-0.6-8.3-1.5-12.5-1.9c-2.1-0.2-4.2,0-6.4,0c-1.9,0-3.5-0.3-5.3-0.5c-0.2-0.1-0.4-0.1-0.6-0.1
			c-0.1,0-0.3,0-0.4,0c-1.8-0.1-2.3,1.7-1.7,2.9c-1.1,2-0.6,4.5-0.5,6.7c0.1,4.4-0.3,8.6-0.7,12.9c-0.4,4-0.5,8-0.6,12
			c-0.1,3.9-0.4,7.7,0.3,11.6c0.5,2.6,0.6,6.8,2.5,8.8c2,2.2,6.9,2,9.6,2.4c4,0.5,8.1,1,12.1,1.3c4.5,0.3,9,0.1,13.4,0.8
			c3.2,0.5,6.3,0.8,9.5,1c2.4,0.2,5.2,0.5,7-1.4c1.6-1.6,2-4.3,2.4-6.4c0.5-3.4,1.2-6.8,1.4-10.3C361,552.6,360.6,544.8,360.1,537.1
			z"/>
	</g>
	<g>
		<path style="fill:#9CC542;" d="M255,841.1c-0.6-4.9-0.9-9.8-1.5-14.7c-0.7-5.5-0.6-11-1.2-16.5c-0.7-5.8-0.1-11.5-1-17.3
			c-0.3-1.8-0.9-3.6-1-5.5c-0.1-1.4,0.1-2.7,0-4.1c-0.1-1.6-0.6-3.1-0.8-4.7c-0.1-1.5-0.1-3-0.3-4.5c-0.1-0.5-0.1-1-0.2-1.4
			c0-0.6,0-1.1,0-1.7c0-7.5,1.3-15.7-3.1-22.2c-3.2-4.6-9-5.9-14.3-6.2c-3-0.2-6.2-0.4-9.2,0.1c-0.7,0.1-1.4,0.3-2.1,0.4
			c-0.2,0-0.4,0-0.5,0c-6.4,0-13-0.2-19.3,1.3c-4.9,1.2-10,4.1-12.4,8.7c-2.6,5.1-2.9,11.1-2.8,16.7c0,0.2,0,0.3,0.1,0.5
			c-0.2,5.2-0.1,10.4-0.1,15.6c0,6.5,0.2,12.9,0.1,19.4c-0.1,5.7-1.2,11.2-1.3,16.9c-0.1,5.4-1.6,10.9-0.9,16.3
			c0.5,3.9,0.6,8.3,2.9,11.6c2.7,3.9,8.6,4.6,12.9,5.3c5.9,1,11.8,1.5,17.8,1.4c6.1-0.1,12.3-0.1,18.4-0.8c2.9-0.3,5.7-0.8,8.6-1.2
			c2.4-0.4,4.9-0.4,6.9-2C254.4,849.9,255.6,845.5,255,841.1z"/>
		<path style="fill:#76ADDE;" d="M229,726.8c0.1-3.2-0.9-6-2.2-8.8c-1-2.2-2.8-2.9-4.9-3.3c-2.3-1.6-5.4-1.2-8.2-1.2
			c-0.6,0-1.2-0.1-1.8-0.1c-1.3,0-2.7,0-3.9,0.4c-1.4,0.3-2.7,0.9-3.7,2.1c-2.4,2.9-1.3,8.3-1.2,11.9c0.1,2.3,0.3,4.8,0.6,7.1
			c0,0.3,0.3,1.3,0.6,2.3c0.2,1.4,0.3,2.8,0.5,4.2c-0.6,1-0.3,2.1,0.3,2.8c0.2,1,1,1.6,2.1,1.7c1.8,0.2,3.6-0.7,5.4-1
			c1.3-0.2,2.5,0,3.9,0c1.4,0,2.5-0.5,3.9-0.6c2.8-0.4,6.5,0.1,8.1-3c0.5-0.9,0.5-1.9,0.4-2.8C228.8,734.5,228.9,730.6,229,726.8z"
			/>
		<path style="fill:#4CB79C;" d="M236.8,821.4c0-2.3-0.2-4.5-0.3-6.8c0-1.9,0.4-3.7,0.3-5.6c-0.1-2.2-0.8-4.3-0.8-6.5
			c0-2.2,0.1-4.4,0.1-6.7c0-2.3-0.6-4.4-0.6-6.6c0-1.9,0.6-3.9,0.7-5.7c0.2-2,0.6-4,0.5-6c0-1.5-0.5-2.9-0.6-4.4
			c-0.2-1.7,0.2-2.9-0.5-4.5c-0.3-0.6-1.2-1.1-1.9-1.1c-2,0.1-3.9,0.7-5.8,1c-2.6,0.5-4.4-0.6-6.8-0.9c-4.8-0.7-9.8-0.7-14.7-0.7
			c-1,0-1.7,0.6-2,1.4c-0.9,0.2-1.6,0.8-1.4,2c0.6,4.9,0.5,9.8,0.8,14.7c0.3,5.1,0.7,10.3,1,15.4c0.2,4.7-0.1,9.5-0.1,14.2
			c0,4.6,0.9,9.3,1.4,13.9c0.1,0.9,0.6,1.9,1.6,2.1c3.2,0.7,6.5-1,9.7-1.1c4.2-0.1,8.5,0.5,12.7,0.2c2.4-0.2,5.4-0.4,6.3-2.9
			C237.1,825.1,236.8,823,236.8,821.4z"/>
	</g>
</g>
</svg>
